<?xml version="1.0" encoding="utf-8"?>
<!-- Generator: Adobe Illustrator 17.1.0, SVG Export Plug-In . SVG Version: 6.00 Build 0)  -->
<!DOCTYPE svg PUBLIC "-//W3C//DTD SVG 1.0//EN" "http://www.w3.org/TR/2001/REC-SVG-20010904/DTD/svg10.dtd">
<svg version="1.0" id="Layer_1" xmlns="http://www.w3.org/2000/svg" xmlns:xlink="http://www.w3.org/1999/xlink" x="0px" y="0px"
	 viewBox="0 0 50 50" style="enable-background:new 0 0 50 50;" xml:space="preserve">
<path d="M42,16l2-2v35c0,0.6-0.4,1-1,1H1c-0.6,0-1-0.4-1-1V7c0-0.6,0.4-1,1-1h35l-2,2H2v40h40V16z M18.994,33.894l-2.888-2.888
	L42.508,4.505l-1.416-1.411l-26.7,26.799c-0.138,0.139-0.232,0.314-0.271,0.507l-1.1,5.4c-0.067,0.328,0.036,0.669,0.273,0.906
	C13.482,36.896,13.737,37,14,37c0.066,0,0.133-0.007,0.2-0.021l5.4-1.1c0.191-0.039,0.368-0.133,0.506-0.271l26.801-26.7
	l-1.412-1.417L18.994,33.894z M48.8,1.2c-1.6-1.6-4.2-1.6-5.8,0l-0.7,0.7l5.8,5.8L48.8,7C50.4,5.4,50.4,2.8,48.8,1.2z"/>
</svg>
