<?xml version="1.0" encoding="utf-8"?>
<!-- Generator: Adobe Illustrator 17.1.0, SVG Export Plug-In . SVG Version: 6.00 Build 0)  -->
<!DOCTYPE svg PUBLIC "-//W3C//DTD SVG 1.0//EN" "http://www.w3.org/TR/2001/REC-SVG-20010904/DTD/svg10.dtd">
<svg version="1.0" id="Layer_1" xmlns="http://www.w3.org/2000/svg" xmlns:xlink="http://www.w3.org/1999/xlink" x="0px" y="0px"
	 viewBox="0 0 50 50" style="enable-background:new 0 0 50 50;" xml:space="preserve">
<path d="M43,0H7C6.448,0,6,0.448,6,1v48c0,0.553,0.448,1,1,1h36c0.553,0,1-0.447,1-1V1C44,0.448,43.553,0,43,0z M38,48H12V6h26V48z
	 M42,48h-2V5c0-0.552-0.447-1-1-1H11c-0.552,0-1,0.448-1,1v43H8V2h34V48z M30,26c0-1.105,0.895-2,2-2c1.105,0,2,0.895,2,2
	c0,1.105-0.895,2-2,2S30,27.105,30,26z"/>
</svg>
