<svg xmlns="http://www.w3.org/2000/svg" width="50" height="50" viewBox="0 0 50 50">
    <path style="text-indent:0;text-align:start;line-height:normal;text-transform:none;block-progression:tb;-inkscape-font-specification:Bitstream Vera Sans" d="M 25 0 C 21.698136 0 19 2.6981362 19 6 C 19 9.3018638 21.698136 12 25 12 C 28.301864 12 31 9.3018638 31 6 C 31 2.6981362 28.301864 0 25 0 z M 25 2 C 27.220984 2 29 3.7790164 29 6 C 29 8.2209836 27.220984 10 25 10 C 22.779016 10 21 8.2209836 21 6 C 21 3.7790164 22.779016 2 25 2 z M 36.28125 4.28125 A 1.0001 1.0001 0 0 0 36.09375 4.3125 A 1.0001 1.0001 0 0 0 35.59375 6 L 42.59375 13 L 38.125 17.46875 L 33.5625 12.90625 C 33.254772 12.599485 33.018323 12.519992 32.75 12.4375 C 32.481677 12.355008 32.183392 12.298426 31.875 12.25 C 31.258216 12.153148 30.54674 12.100723 29.84375 12.0625 C 28.43777 11.986053 27.068106 12 26.84375 12 A 1.0001 1.0001 0 0 0 25.84375 12.84375 L 25 17.875 L 24.15625 12.84375 A 1.0001 1.0001 0 0 0 23.15625 12 C 22.931894 12 21.56223 11.98605 20.15625 12.0625 C 19.45326 12.10072 18.741784 12.15315 18.125 12.25 C 17.816608 12.29843 17.518323 12.355008 17.25 12.4375 C 16.981677 12.51999 16.745228 12.599485 16.4375 12.90625 L 11.875 17.46875 L 7.3125 12.90625 C 6.7085668 12.305241 5.9223838 11.99996 5.125 12 C 4.3276162 12.00004 3.5094173 12.304547 2.90625 12.90625 C 1.6987757 14.110801 1.6980823 16.10872 2.90625 17.3125 L 9.65625 24.03125 C 10.25999 24.636459 11.082614 24.9375 11.875 24.9375 C 12.654249 24.9375 13.430847 24.6447 14.03125 24.0625 C 14.04179 24.05228 14.05208 24.04164 14.0625 24.03125 L 17 21.28125 L 17 35 A 1.0001 1.0001 0 0 0 18 36 L 18 47 C 18 48.645255 19.354745 50 21 50 L 29 50 C 30.645255 50 32 48.645255 32 47 L 32 36 A 1.0001 1.0001 0 0 0 33 35 L 33 21.28125 L 35.9375 24.03125 C 35.94791 24.04163 35.95822 24.05229 35.96875 24.0625 C 36.568596 24.644178 37.345751 24.9375 38.125 24.9375 C 38.916852 24.9375 39.739438 24.637033 40.34375 24.03125 L 47.09375 17.3125 C 48.301918 16.10872 48.299995 14.111032 47.09375 12.90625 C 46.377862 12.192099 45.378703 11.897681 44.4375 12.03125 L 37 4.59375 A 1.0001 1.0001 0 0 0 36.28125 4.28125 z M 44.90625 13.96875 C 45.193963 13.968924 45.466668 14.092204 45.6875 14.3125 C 46.131255 14.755718 46.131332 15.43278 45.6875 15.875 L 38.90625 22.625 C 38.688562 22.843217 38.413148 22.9375 38.125 22.9375 C 37.833923 22.9375 37.566186 22.8469 37.34375 22.625 A 1.0001 1.0001 0 0 0 37.3125 22.59375 L 32.6875 18.28125 A 1.0001 1.0001 0 0 0 31 19 L 31 34 L 19.1875 34 A 1.0001 1.0001 0 0 0 19 33.96875 L 19 19 A 1.0001 1.0001 0 0 0 17.3125 18.28125 L 12.6875 22.59375 A 1.0001 1.0001 0 0 0 12.65625 22.625 C 12.434385 22.846328 12.166077 22.9375 11.875 22.9375 C 11.585386 22.9375 11.31201 22.84379 11.09375 22.625 L 4.3125 15.875 C 3.8686677 15.43278 3.8679743 14.755949 4.3125 14.3125 C 4.5333327 14.092203 4.8423838 13.99996 5.125 14 C 5.4076162 14.00004 5.6841832 14.09151 5.90625 14.3125 L 11.15625 19.5625 A 1.0001 1.0001 0 0 0 12.5625 19.5625 L 17.75 14.40625 C 17.752931 14.408221 17.781484 14.394143 17.84375 14.375 C 17.968282 14.33671 18.18797 14.28918 18.4375 14.25 C 18.93656 14.17163 19.585115 14.098652 20.25 14.0625 C 21.207871 14.01042 21.79182 14.03397 22.34375 14.03125 L 24 24.15625 A 1.0001 1.0001 0 0 0 26 24.15625 L 27.65625 14.03125 C 28.20818 14.03395 28.792129 14.01042 29.75 14.0625 C 30.414885 14.09865 31.06344 14.171634 31.5625 14.25 C 31.81203 14.28918 32.031718 14.33671 32.15625 14.375 C 32.218516 14.394145 32.247069 14.408221 32.25 14.40625 L 37.4375 19.5625 A 1.0001 1.0001 0 0 0 38.84375 19.5625 L 44.09375 14.3125 C 44.149267 14.257252 44.218524 14.228901 44.28125 14.1875 A 1.0001 1.0001 0 0 0 44.75 14 C 44.800872 13.993033 44.855023 13.968719 44.90625 13.96875 z M 20 36 L 30 36 L 30 47 C 30 47.558745 29.558745 48 29 48 L 21 48 C 20.441255 48 20 47.558745 20 47 L 20 36 z" color="#000" overflow="visible" enable-background="accumulate" font-family="Bitstream Vera Sans"/>
</svg>
