<svg xmlns="http://www.w3.org/2000/svg" width="50" height="50" viewBox="0 0 50 50">
    <path d="M 25 0 C 21.967 0 19.5 2.467 19.5 5.5 C 19.5 8.533 21.967 11 25 11 C 28.032 11 30.5 8.533 30.5 5.5 C 30.5 2.467 28.032 0 25 0 z M 36.3125 4.3125 C 36.05675 4.3125 35.78925 4.39825 35.59375 4.59375 C 35.20275 4.98475 35.20275 5.64025 35.59375 6.03125 L 41.6875 11.59375 L 41.78125 11.5 C 42.23025 11.053 42.285 10.6855 42.875 10.4375 L 37.03125 4.59375 C 36.83575 4.39825 36.56825 4.3125 36.3125 4.3125 z M 22.4375 12.03125 C 17.6935 12.03125 16.97025 12.59325 16.78125 12.78125 L 11.375 17.84375 L 6.46875 12.78125 C 5.48275 11.79825 3.76725 11.79825 2.78125 12.78125 C 2.28625 13.27425 2 13.929 2 14.625 C 2 15.32 2.28725 15.97675 2.78125 16.46875 L 9.53125 23.34375 C 10.51125 24.32775 12.2275 24.335 13.1875 23.375 L 17 20.21875 L 17 35.53125 C 17 35.80725 17.224 36.03125 17.5 36.03125 L 32.53125 36.03125 C 32.80725 36.03125 33.03125 35.80825 33.03125 35.53125 L 33.03125 20.25 L 36.78125 23.34375 C 37.76825 24.32775 39.48975 24.32475 40.46875 23.34375 L 47.21875 16.46875 C 47.71375 15.97675 47.999 15.321 48 14.625 C 48 13.929 47.71375 13.27525 47.21875 12.78125 C 46.23275 11.79825 44.52125 11.79725 43.53125 12.78125 L 38.625 17.8125 L 33.21875 12.78125 C 33.03075 12.59325 32.56725 12.03125 27.53125 12.03125 L 27.375 12.03125 C 27.131 12.03125 26.94625 12.1965 26.90625 12.4375 L 25 24.03125 L 23.0625 12.4375 C 23.0225 12.1975 22.6825 12.03125 22.4375 12.03125 z M 18 38 L 18 47.5 C 18 48.879 19.122 50 20.5 50 L 29.53125 50 C 30.91025 50 32.03125 48.879 32.03125 47.5 L 32.03125 38 L 18 38 z"/>
</svg>
