<?xml version="1.0" encoding="utf-8"?>
<!-- Generator: Adobe Illustrator 17.0.2, SVG Export Plug-In . SVG Version: 6.00 Build 0)  -->
<!DOCTYPE svg PUBLIC "-//W3C//DTD SVG 1.0//EN" "http://www.w3.org/TR/2001/REC-SVG-20010904/DTD/svg10.dtd">
<svg version="1.0" id="Layer_1" xmlns="http://www.w3.org/2000/svg" xmlns:xlink="http://www.w3.org/1999/xlink" x="0px" y="0px"
	 width="50.008px" height="50px" viewBox="0 0 50.008 50" style="enable-background:new 0 0 50.008 50;" xml:space="preserve">
<path d="M48.589,24.271c-0.663-0.954-1.291-1.65-3.086-1.752l-2.478-2.938c3.153-2.353,3.083-5.236,3.048-6.702
	c-0.049-1.977-0.335-4.005-0.749-5.295C44.992,6.557,44.502,6,42.872,6H31.961c-0.3-3.58-2.332-5-6.961-5
	c-4.628,0-6.661,1.42-6.96,5H7.077C5.441,6,4.953,6.558,4.625,7.586c-0.414,1.283-0.7,3.312-0.747,5.292
	c-0.039,1.5-0.115,4.48,3.265,6.862l-1.75,2.784c-2.204,0.135-3.08,1.063-3.733,1.754l-0.07,0.074
	c-1.706,1.802-1.61,4.236-1.564,5.406l0.009,0.283c0.024,1.611,0.474,5.332,1.615,8.978C3.774,45.798,8.411,50,24.94,50
	c16.322,0,21.577-5.039,23.111-9.267c1.136-3.138,1.885-7.295,1.954-10.85C50.052,27.471,49.614,25.739,48.589,24.271z M25,3
	c4.001,0,4.817,1.112,4.968,3h-9.936C20.183,4.112,20.999,3,25,3z M5.876,12.928C5.929,10.77,6.26,9.031,6.529,8.197
	C6.548,8.136,6.563,8.08,6.581,8.029C6.664,8.016,6.815,8,7.077,8h35.795c0.263,0,0.413,0.016,0.495,0.029
	c0.019,0.051,0.034,0.108,0.054,0.168c0.268,0.836,0.6,2.578,0.652,4.731c0.043,1.767,0.121,5.004-6.215,6.917
	C37.395,18.207,35.841,17,34,17c-2.196,0-3.984,1.719-4,3.837c-3.17,0.215-6.859,0.215-10,0.003C19.986,18.72,18.197,17,16,17
	c-1.845,0-3.402,1.213-3.862,2.858C5.748,17.946,5.831,14.7,5.876,12.928z M36,20.865v2.27C36,24.163,35.103,25,34,25
	s-2-0.837-2-1.865v-2.27C32,19.837,32.897,19,34,19S36,19.837,36,20.865z M18,20.865v2.27C18,24.163,17.103,25,16,25
	s-2-0.837-2-1.865v-2.27C14,19.837,14.897,19,16,19S18,19.837,18,20.865z M46.17,40.052C44.311,45.177,36.771,48,24.94,48
	c-16.975,0-19.8-4.531-21.382-9.579c-1.077-3.441-1.501-6.914-1.523-8.411l-0.011-0.33c-0.038-0.966-0.109-2.764,1.017-3.952
	l0.072-0.076c0.573-0.606,1.069-1.132,2.779-1.145c0.074,0.018,0.152,0.027,0.233,0.027C7.41,24.935,8.753,32.736,9,41.229
	c0.016,0.552,0.469,0.978,1.028,0.971c0.552-0.017,0.987-0.477,0.971-1.029c-0.176-6.087-0.887-15.783-3.578-18.117l1.45-2.308
	c0.88,0.425,1.914,0.814,3.128,1.153v1.235C12,25.266,13.794,27,16,27s4-1.734,4-3.865v-0.29c3.152,0.207,6.82,0.206,10-0.003v0.293
	C30,25.266,31.794,27,34,27s4-1.734,4-3.865v-1.248c1.295-0.365,2.385-0.788,3.3-1.25l2.189,2.596
	c-2.107,2.344-3.059,10.167-3.487,16.903c-0.035,0.551,0.384,1.026,0.935,1.062c0.545,0.023,1.025-0.384,1.062-0.935
	c0.497-7.809,1.828-14.957,2.92-15.731c0.054-0.004,0.105-0.013,0.157-0.026c1.245,0.006,1.406,0.237,1.874,0.908
	c0.778,1.115,1.095,2.44,1.056,4.43C47.941,33.145,47.221,37.151,46.17,40.052z"/>
</svg>
