<svg xmlns="http://www.w3.org/2000/svg" width="50" height="50" viewBox="0 0 50 50">
    <path style="text-indent:0;text-align:start;line-height:normal;text-transform:none;block-progression:tb;-inkscape-font-specification:Bitstream Vera Sans" d="M 15 7 C 7.8324839 7 2 12.832484 2 20 C 2 34.761905 18.694043 42.047119 24.375 46.78125 L 25 47.3125 L 25.625 46.78125 C 31.305957 42.047119 48 34.761905 48 20 C 48 12.832484 42.167516 7 35 7 C 30.944199 7 27.383797 8.9249177 25 11.84375 C 22.616203 8.9249177 19.055801 7 15 7 z M 15 9 C 18.835004 9 22.185693 10.969285 24.15625 13.9375 L 25 15.1875 L 25.84375 13.9375 C 27.814307 10.969285 31.164996 9 35 9 C 41.086484 9 46 13.913516 46 20 C 46 32.896733 31.592632 39.574446 25 44.78125 C 18.407368 39.574446 4 32.896733 4 20 C 4 13.913516 8.9135161 9 15 9 z" color="#000" stroke-width="2" overflow="visible" enable-background="accumulate" font-family="Bitstream Vera Sans"/>
</svg>
