<?xml version="1.0" encoding="utf-8"?>
<!-- Generator: Adobe Illustrator 17.0.2, SVG Export Plug-In . SVG Version: 6.00 Build 0)  -->
<!DOCTYPE svg PUBLIC "-//W3C//DTD SVG 1.0//EN" "http://www.w3.org/TR/2001/REC-SVG-20010904/DTD/svg10.dtd">
<svg version="1.0" id="Layer_1" xmlns="http://www.w3.org/2000/svg" xmlns:xlink="http://www.w3.org/1999/xlink" x="0px" y="0px"
	 width="50px" height="50px" viewBox="0 0 50 50" style="enable-background:new 0 0 50 50;" xml:space="preserve">
<g>
	<path d="M31,45c0.553,0,1-0.447,1-1V11c0-0.552-0.447-1-1-1s-1,0.448-1,1v33C30,44.553,30.447,45,31,45z"/>
	<path d="M42,5h-1.99c-0.008,0-0.015,0-0.022,0H32V3c0-1.654-1.346-3-3-3h-8c-1.654,0-3,1.346-3,3v2h-7.988
		C10.004,5,9.998,4.999,9.99,5H8C7.448,5,7,5.448,7,6s0.448,1,1,1h1.085l3.611,40.515C12.821,48.908,14.004,50,15.391,50h19.217
		c1.386,0,2.569-1.092,2.694-2.485L40.915,7H42c0.553,0,1-0.448,1-1S42.553,5,42,5z M20,3c0-0.551,0.449-1,1-1h8
		c0.552,0,1,0.449,1,1v2H20V3z M35.311,47.337C35.279,47.69,34.951,48,34.608,48H15.391c-0.343,0-0.671-0.31-0.703-0.663L11.093,7
		h27.814L35.311,47.337z"/>
	<path d="M19,45c0.552,0,1-0.447,1-1V11c0-0.552-0.448-1-1-1s-1,0.448-1,1v33C18,44.553,18.448,45,19,45z"/>
	<path d="M25,45c0.553,0,1-0.447,1-1V11c0-0.552-0.447-1-1-1c-0.552,0-1,0.448-1,1v33C24,44.553,24.448,45,25,45z"/>
</g>
</svg>
