<?xml version="1.0" encoding="utf-8"?>
<!-- Generator: Adobe Illustrator 17.0.2, SVG Export Plug-In . SVG Version: 6.00 Build 0)  -->
<!DOCTYPE svg PUBLIC "-//W3C//DTD SVG 1.0//EN" "http://www.w3.org/TR/2001/REC-SVG-20010904/DTD/svg10.dtd">
<svg version="1.0" id="Layer_1" xmlns="http://www.w3.org/2000/svg" xmlns:xlink="http://www.w3.org/1999/xlink" x="0px" y="0px"
	 width="50px" height="50px" viewBox="0 0 50 50" style="enable-background:new 0 0 50 50;" xml:space="preserve">
<path d="M40,0H10C4.486,0,0,4.486,0,10v30c0,5.514,4.486,10,10,10h30c5.514,0,10-4.486,10-10V10C50,4.486,45.514,0,40,0z M32,48h-5
	V27h-3v-4h3v-4c0-4.907,1.794-7,6-7c1.917,0,3.961,0.473,5,0.752V16h-2c-1.094,0-4,0-4,3v4h5.819l-0.666,4H32V48z M48,40
	c0,4.411-3.589,8-8,8h-6V29h4.847l1.334-8H34v-2c0-0.602,0-1,2-1h4v-6.728l-0.692-0.224C39.175,11.005,36.026,10,33,10
	c-5.309,0-8,3.028-8,9v2h-3v8h3v19H10c-4.411,0-8-3.589-8-8V10c0-4.411,3.589-8,8-8h30c4.411,0,8,3.589,8,8V40z"/>
</svg>
