<?xml version="1.0" encoding="utf-8"?>
<!-- Generator: Adobe Illustrator 17.0.2, SVG Export Plug-In . SVG Version: 6.00 Build 0)  -->
<!DOCTYPE svg PUBLIC "-//W3C//DTD SVG 1.0//EN" "http://www.w3.org/TR/2001/REC-SVG-20010904/DTD/svg10.dtd">
<svg version="1.0" id="Layer_1" xmlns="http://www.w3.org/2000/svg" xmlns:xlink="http://www.w3.org/1999/xlink" x="0px" y="0px"
	 width="50px" height="50px" viewBox="0 0 50 50" style="enable-background:new 0 0 50 50;" xml:space="preserve">
<path d="M49.951,9.41c-0.126-0.388-0.476-0.661-0.884-0.688l-8.11-0.55l-3.029-7.543C37.775,0.249,37.408,0,37,0
	s-0.775,0.249-0.928,0.627l-3.029,7.543l-8.111,0.55c-0.407,0.027-0.757,0.3-0.883,0.688c-0.126,0.389-0.003,0.814,0.31,1.077
	l1.008,0.842C3.295,16.377,0.042,37.17,0.01,37.386c-0.056,0.389,0.121,0.774,0.452,0.985c0.33,0.211,0.754,0.21,1.084-0.005
	l3.739-2.437c-0.675,2.752-1.394,7.411-0.637,13.199c0.055,0.417,0.365,0.755,0.775,0.847c0.072,0.016,0.145,0.023,0.216,0.023
	c0.337,0,0.658-0.171,0.844-0.464l6.052-9.517c0.56,2.174,1.575,5.283,3.117,7.022c0.267,0.301,0.688,0.412,1.069,0.284
	c0.381-0.129,0.647-0.475,0.677-0.875c0.014-0.199,1.483-18.873,11.975-25.885l-0.759,3.016c-0.1,0.396,0.052,0.813,0.382,1.053
	s0.774,0.255,1.12,0.038L37,20.35l6.884,4.322c0.346,0.217,0.79,0.203,1.12-0.038s0.481-0.657,0.382-1.053l-1.982-7.883l6.238-5.211
	C49.954,10.224,50.077,9.798,49.951,9.41z M30.056,17.849c-5.346,2.732-9.561,8.464-12.206,16.613
	c-1.133,3.49-1.759,6.715-2.094,8.916c-1.18-2.69-1.773-6.062-1.781-6.107c-0.07-0.407-0.384-0.729-0.789-0.811
	c-0.405-0.079-0.819,0.095-1.04,0.444l-5.773,9.079c-0.351-7.152,1.578-11.961,1.6-12.015c0.166-0.405,0.05-0.872-0.288-1.15
	c-0.184-0.152-0.411-0.23-0.638-0.23c-0.189,0-0.378,0.054-0.545,0.162l-3.965,2.583c1.573-5.509,7.187-19.082,24.788-22.369
	l3.271,2.733L30.056,17.849z M41.639,14.565c-0.294,0.246-0.422,0.639-0.328,1.012l1.528,6.077l-5.307-3.332
	c-0.163-0.102-0.348-0.153-0.532-0.153s-0.369,0.051-0.532,0.153l-5.307,3.332l1.528-6.077c0.094-0.373-0.034-0.766-0.328-1.012
	l-4.097-3.422c-0.01-0.009-0.021-0.018-0.032-0.027l-0.681-0.569l6.253-0.424c0.383-0.026,0.718-0.269,0.86-0.625L37,3.684
	l2.335,5.815c0.143,0.356,0.478,0.599,0.86,0.625l6.253,0.424L41.639,14.565z"/>
</svg>
