<?xml version="1.0" encoding="utf-8"?>
<!-- Generator: Adobe Illustrator 17.0.2, SVG Export Plug-In . SVG Version: 6.00 Build 0)  -->
<!DOCTYPE svg PUBLIC "-//W3C//DTD SVG 1.0//EN" "http://www.w3.org/TR/2001/REC-SVG-20010904/DTD/svg10.dtd">
<svg version="1.0" id="Layer_1" xmlns="http://www.w3.org/2000/svg" xmlns:xlink="http://www.w3.org/1999/xlink" x="0px" y="0px"
	 width="50px" height="50px" viewBox="0 0 50 50" style="enable-background:new 0 0 50 50;" xml:space="preserve">
<path d="M46,18h-8.534c3.918-1.661,7.598-4.27,8.934-7.494c0.838-2.023,1.109-5.161-2.354-8.625
	c-1.336-1.336-3.073-1.95-4.901-1.737c-1.765,0.209-3.335,1.178-4.201,2.591c-2.613,4.269-4.967,7.598-6.724,9.529
	C27.846,12.097,27.435,12,27,12h-4c-0.436,0-0.848,0.098-1.222,0.266c-2.338-2.569-5.171-6.998-6.721-9.531
	c-0.866-1.414-2.437-2.382-4.202-2.591c-1.824-0.22-3.565,0.4-4.9,1.737C2.49,5.345,2.762,8.483,3.6,10.506
	C4.935,13.73,8.616,16.339,12.534,18H4c-2.206,0-4,1.794-4,4v24c0,2.206,1.794,4,4,4h42c2.206,0,4-1.794,4-4V22
	C50,19.794,48.206,18,46,18z M36.637,3.772c0.543-0.886,1.593-1.521,2.741-1.656c1.205-0.144,2.367,0.272,3.264,1.169
	c2.158,2.158,2.806,4.332,1.924,6.46c-1.873,4.524-9.739,7.865-14.741,8.225C29.931,17.665,30,17.342,30,17v-0.055
	c2.76-1.03,10.503-4.181,11.391-7.433c0.223-0.817,0.048-1.6-0.507-2.264C40.275,6.52,39.6,6.363,39.139,6.361
	c-0.005,0-0.009,0-0.014,0c-1.568,0-3.004,1.676-4.82,3.796c-1.316,1.536-2.771,3.223-4.353,4.367
	c-0.051-0.318-0.155-0.616-0.298-0.893C31.981,11.089,34.697,6.942,36.637,3.772z M34.715,12.717
	c0.376-0.426,0.741-0.853,1.098-1.269c1.122-1.31,2.658-3.102,3.312-3.102c0.001,0,0.002,0,0.002,0c0.073,0,0.168,0.095,0.234,0.174
	c0.152,0.183,0.157,0.311,0.114,0.468C39.215,9.942,37.393,11.322,34.715,12.717z M27,14c0.552,0,1,0.449,1,1v2c0,0.551-0.448,1-1,1
	h-4c-0.551,0-1-0.449-1-1v-2c0-0.551,0.449-1,1-1H27z M5.435,9.746C4.553,7.617,5.2,5.443,7.358,3.285
	c0.897-0.896,2.057-1.312,3.263-1.169c1.149,0.136,2.2,0.771,2.742,1.656c1.939,3.169,4.654,7.316,6.983,9.859
	c-0.143,0.277-0.247,0.574-0.298,0.893c-1.582-1.144-3.037-2.831-4.353-4.367c-1.816-2.12-3.252-3.796-4.82-3.796
	c-0.004,0-0.009,0-0.014,0c-0.46,0.002-1.137,0.159-1.746,0.887C8.562,7.912,8.387,8.695,8.609,9.512
	c0.888,3.252,8.631,6.403,11.391,7.433V17c0,0.342,0.07,0.665,0.175,0.971C15.174,17.61,7.308,14.27,5.435,9.746z M15.286,12.717
	c-2.678-1.395-4.5-2.775-4.76-3.728c-0.043-0.158-0.038-0.285,0.115-0.468c0.067-0.081,0.17-0.182,0.236-0.175
	c0.654,0,2.189,1.792,3.312,3.102C14.543,11.865,14.909,12.291,15.286,12.717z M21,48H4c-1.103,0-2-0.897-2-2v-8h19V48z M21,36H2v-4
	h19V36z M21,30H2v-8c0-1.103,0.897-2,2-2h17V30z M27,48h-4V20h4V48z M48,46c0,1.103-0.897,2-2,2H29V38h19V46z M48,36H29v-4h19V36z
	 M48,30H29V20h17c1.103,0,2,0.897,2,2V30z"/>
</svg>
