<svg version="1.0" id="Layer_1" xmlns="http://www.w3.org/2000/svg" xmlns:xlink="http://www.w3.org/1999/xlink" x="0px" y="0px"
	 width="50px" height="50px" viewBox="0 0 50 50" style="enable-background:new 0 0 50 50;" xml:space="preserve">
<path d="M44.998,44.945c-0.334-6.091-5.203-8.014-9.114-9.558c-2.336-0.923-4.362-1.723-4.995-3.116
	c-0.079-1.32-0.088-2.301-0.089-3.518c0.868-0.913,1.787-2.825,2.171-4.562c0.717-0.339,1.617-1.223,1.825-3.508
	c0.095-1.126-0.215-1.954-0.641-2.488c0.849-2.728,1.594-7.402-0.203-10.373C33.1,6.414,31.8,5.528,30.083,5.185
	C29.117,3.965,27.301,3.3,24.878,3.3c0,0,0,0-0.001,0C21.193,3.383,18.5,4.51,16.874,6.649c-1.926,2.533-2.288,6.417-1.078,11.547
	c-0.413,0.531-0.784,1.38-0.687,2.539c0.295,2.164,1.119,3.053,1.789,3.417c0.338,1.803,1.321,3.709,2.205,4.611
	c0.002,0.224,0.006,0.439,0.01,0.651c0.018,0.957,0.033,1.789-0.092,2.852c-0.548,1.403-2.582,2.21-4.928,3.14
	c-3.902,1.546-8.758,3.471-9.092,9.54L4.943,46h40.113L44.998,44.945z M30.868,35.164l-1.858,2.253l-2.28-2.834l2.427-1.348
	C29.545,34.011,30.134,34.638,30.868,35.164z M18.795,23.305l-0.013-0.896h-0.909c-0.142-0.055-0.589-0.53-0.776-1.892
	c-0.07-0.839,0.359-1.186,0.358-1.186l0.588-0.392l-0.174-0.685c-1.211-4.784-1.011-8.281,0.596-10.395
	c1.24-1.63,3.412-2.491,6.435-2.56c1.891,0,3.252,0.476,3.737,1.304l0.244,0.419L29.36,7.09c1.332,0.188,2.274,0.766,2.881,1.768
	c1.448,2.395,0.685,6.877-0.183,9.305l-0.316,0.824l0.793,0.396c0.089,0.063,0.329,0.408,0.269,1.125
	C32.669,21.988,32.2,22.382,32.1,22.4h-0.867l-0.123,0.859c-0.274,1.925-1.428,3.899-1.805,4.173L28.8,27.719V28.3
	c0,1.036,0.003,1.884,0.034,2.827L25,33.257l-3.89-2.161c0.02-0.594,0.013-1.15,0.003-1.719C21.107,29.034,21.1,28.68,21.1,28.3
	l-0.063-0.562l-0.429-0.299C20.217,27.167,18.973,25.173,18.795,23.305z M20.773,33.196l2.497,1.387l-2.28,2.834l-1.868-2.264
	C19.845,34.62,20.415,33.984,20.773,33.196z M14.83,37.265c0.886-0.351,1.748-0.7,2.547-1.085l2.852,3.457
	C20.418,39.867,20.702,40,21,40c0.002,0,0.004,0,0.006,0c0.3-0.002,0.584-0.139,0.773-0.373l1.964-2.442L24.5,37.8
	c0,0-1.758,3.011-2.262,6.2H7.122C7.856,40.028,11.397,38.625,14.83,37.265z M27.768,44c-0.498-3.243-2.268-6.2-2.268-6.2
	l0.757-0.615l1.964,2.442c0.188,0.234,0.473,0.371,0.773,0.373c0.002,0,0.004,0,0.006,0c0.299,0,0.581-0.134,0.771-0.363
	l2.853-3.458c0.794,0.378,1.648,0.722,2.524,1.068c3.443,1.36,6.995,2.763,7.729,6.753H27.768z"/>
</svg>
