<svg xmlns="http://www.w3.org/2000/svg" viewBox="0 0 50 50" enable-background="new 0 0 50 50">
    <path style="text-indent:0;text-align:start;line-height:normal;text-transform:none;block-progression:tb;-inkscape-font-specification:Bitstream Vera Sans" d="M 25 0 C 11.204726 0 0 11.204726 0 25 C 0 32.049409 2.922808 38.421669 7.625 42.96875 A 1.0001 1.0001 0 0 0 7.625 43 A 1.0001 1.0001 0 0 0 8.125 43.46875 C 8.1415871 43.483909 8.1708721 43.484885 8.1875 43.5 A 1.0001 1.0001 0 0 0 8.21875 43.5 C 12.657606 47.527246 18.541993 50 25 50 C 31.466535 50 37.371623 47.536719 41.8125 43.5 A 1.0001 1.0001 0 0 0 41.84375 43.46875 A 1.0001 1.0001 0 0 0 42.375 43 A 1.0001 1.0001 0 0 0 42.375 42.96875 C 47.077192 38.421669 50 32.049409 50 25 C 50 11.204726 38.795274 0 25 0 z M 25 2 C 37.714394 2 48 12.285606 48 25 C 48 31.309594 45.480868 37.034386 41.375 41.1875 C 39.432914 39.718213 37.107526 38.929025 35.125 38.125 C 32.929234 37.234495 31.348716 36.358987 30.875 35.1875 C 30.874623 35.1622 30.875643 35.12056 30.875 35.09375 C 32.618079 34.867147 34.279792 34.577937 35.46875 34.125 C 36.188163 33.850938 36.796057 33.546099 37.28125 33.15625 C 37.766443 32.766401 38.1875 32.230556 38.1875 31.5 A 1.0001 1.0001 0 0 0 37.875 30.75 C 37.753946 30.640295 37.51768 30.215622 37.375 29.46875 C 37.23232 28.721878 37.151764 27.713372 37.125 26.5625 C 37.07147 24.260757 37.17825 21.381021 37.03125 18.5625 C 36.884252 15.743979 36.514975 12.966128 35.3125 10.78125 C 34.148718 8.6666776 32.001395 7.2114128 29.03125 7.21875 C 28.075992 6.5531905 26.776985 6.09375 25.09375 6.09375 A 1.0001 1.0001 0 0 0 25.03125 6.09375 C 20.981614 6.3849003 18.179094 8.0193252 16.4375 10.34375 C 14.695906 12.668175 13.973068 15.581076 13.625 18.46875 C 13.276932 21.356424 13.319942 24.250411 13.21875 26.5625 C 13.16815 27.718544 13.066362 28.747301 12.90625 29.5 C 12.746138 30.252699 12.519221 30.688333 12.34375 30.84375 A 1.0001 1.0001 0 0 0 12 31.59375 C 12 32.30625 12.401442 32.985577 12.90625 33.40625 C 13.411058 33.826923 14.012042 34.083859 14.71875 34.3125 C 15.87683 34.687173 17.477274 34.877401 19.125 35.09375 C 19.1204 35.13009 19.1308 35.1468 19.125 35.1875 C 18.651284 36.358987 17.070766 37.234495 14.875 38.125 C 12.892474 38.929025 10.567086 39.718213 8.625 41.1875 C 4.5191325 37.034386 2 31.309594 2 25 C 2 12.285606 12.285606 2 25 2 z M 25.09375 8.09375 C 25.11751 8.09375 25.1327 8.0935134 25.15625 8.09375 C 26.623835 8.108494 27.719326 8.5942433 28.15625 8.96875 A 1.0001 1.0001 0 0 0 28.84375 9.1875 C 31.36572 9.098227 32.6306 10.056753 33.5625 11.75 C 34.4944 13.443247 34.890748 15.962271 35.03125 18.65625 C 35.171752 21.350229 35.06915 24.192368 35.125 26.59375 C 35.15292 27.794441 35.225884 28.899607 35.40625 29.84375 C 35.530033 30.491702 35.751777 31.050406 36.0625 31.5625 C 36.03524 31.59079 36.08547 31.55018 36.03125 31.59375 C 35.800818 31.778901 35.343087 32.024062 34.75 32.25 C 33.563825 32.701876 31.798989 33.118989 29.71875 33.3125 A 1.0001 1.0001 0 0 0 28.8125 34.5 C 28.89239 34.899428 28.90625 35.2 28.90625 35.5 A 1.0001 1.0001 0 0 0 28.96875 35.84375 C 29.813805 38.053895 32.093364 39.04342 34.375 39.96875 C 36.273463 40.738682 38.27355 41.489206 39.84375 42.5625 C 35.837804 45.952265 30.665827 48 25 48 C 19.334173 48 14.162196 45.952265 10.15625 42.5625 C 11.72645 41.489206 13.726537 40.738682 15.625 39.96875 C 17.906636 39.04342 20.186195 38.053895 21.03125 35.84375 A 1.0001 1.0001 0 0 0 21.09375 35.65625 C 21.202636 35.002931 21.1875 34.6125 21.1875 34.3125 A 1.0001 1.0001 0 0 0 20.3125 33.3125 C 18.231372 33.064747 16.480334 32.773968 15.34375 32.40625 C 14.775458 32.222391 14.376442 32.001202 14.1875 31.84375 C 14.10814 31.77762 14.1175 31.78147 14.09375 31.75 C 14.465171 31.209949 14.726818 30.602865 14.875 29.90625 C 15.078169 28.951137 15.166221 27.856456 15.21875 26.65625 C 15.323808 24.255839 15.29807 21.431076 15.625 18.71875 C 15.951932 16.006424 16.647844 13.450575 18.0625 11.5625 C 19.467678 9.6870746 21.537315 8.3648552 25.09375 8.09375 z" color="#000" overflow="visible" enable-background="accumulate" font-family="Bitstream Vera Sans"/>
</svg>
