<?xml version="1.0" encoding="utf-8"?>
<!-- Generator: Adobe Illustrator 17.0.2, SVG Export Plug-In . SVG Version: 6.00 Build 0)  -->
<!DOCTYPE svg PUBLIC "-//W3C//DTD SVG 1.0//EN" "http://www.w3.org/TR/2001/REC-SVG-20010904/DTD/svg10.dtd">
<svg version="1.0" id="Layer_1" xmlns="http://www.w3.org/2000/svg" xmlns:xlink="http://www.w3.org/1999/xlink" x="0px" y="0px"
	 width="50px" height="50px" viewBox="0 0 50 50" style="enable-background:new 0 0 50 50;" xml:space="preserve">
<path d="M24.923,7c-9.925,0-18,8.075-18,18c0,9.925,8.075,18,18,18c9.925,0,18-8.075,18-18C42.923,15.075,34.848,7,24.923,7z
	 M24.923,41c-8.822,0-16-7.178-16-16s7.178-16,16-16s16,7.178,16,16S33.745,41,24.923,41z M29.47,31.272v1.452h-9.039V31.27
	c0.27-0.017,0.686-0.057,1.253-0.112c0.57-0.059,0.558-0.119,0.772-0.181c0.276-0.09,0.489-0.237,0.637-0.437
	c0.145-0.2,0.219-0.503,0.219-0.904v-9.493h-2.937v-1.126h0.74c0.964,0,1.83-0.18,2.593-0.539c0.767-0.356,1.311-0.739,1.643-1.152
	h1.569c-0.024,0.582-0.052,1.26-0.079,2.037c-0.028,0.781-0.042,1.476-0.042,2.094v8.032c0,0.314,0.071,0.593,0.209,0.838
	c0.138,0.245,0.337,0.427,0.596,0.544c0.232,0.097,0.612,0.186,1.14,0.266C29.273,31.22,29.21,31.265,29.47,31.272z"/>
</svg>
