<?xml version="1.0" encoding="utf-8"?>
<!-- Generator: Adobe Illustrator 17.0.2, SVG Export Plug-In . SVG Version: 6.00 Build 0)  -->
<!DOCTYPE svg PUBLIC "-//W3C//DTD SVG 1.0//EN" "http://www.w3.org/TR/2001/REC-SVG-20010904/DTD/svg10.dtd">
<svg version="1.0" id="Layer_1" xmlns="http://www.w3.org/2000/svg" xmlns:xlink="http://www.w3.org/1999/xlink" x="0px" y="0px"
	 width="50px" height="50px" viewBox="0 0 50 50" style="enable-background:new 0 0 50 50;" xml:space="preserve">
<path d="M24.9,7c-9.925,0-18,8.075-18,18c0,9.925,8.075,18,18,18s18-8.075,18-18C42.9,15.075,34.825,7,24.9,7z M24.9,41
	c-8.822,0-16-7.178-16-16s7.178-16,16-16c8.823,0,16,7.178,16,16S33.723,41,24.9,41z M29.9,28.2c0,2.1-1.5,4-4.2,4.4v2.6h-1.8v0
	v-2.4c-1.6,0-3.1-0.5-4-1.1l0.7-2.3c1,0.6,2.4,1.1,3.9,1.1c1.6,0,2.7-0.8,2.7-1.9c0-1.1-0.9-1.8-2.7-2.5C21.8,25,20,23.8,20,21.5
	c0-2.1,1.5-3.8,4-4.2v-2.4h2v2.3c1.6,0,2.7,0.4,3.4,0.8l-0.7,2.3c-0.6-0.3-1.7-0.8-3.4-0.8c-1.7,0-2.4,0.9-2.4,1.7
	c0,1,0.9,1.6,3,2.4C28.7,24.6,29.9,26,29.9,28.2z"/>
</svg>
