<?xml version="1.0" encoding="utf-8"?>
<!-- Generator: Adobe Illustrator 17.0.2, SVG Export Plug-In . SVG Version: 6.00 Build 0)  -->
<!DOCTYPE svg PUBLIC "-//W3C//DTD SVG 1.0//EN" "http://www.w3.org/TR/2001/REC-SVG-20010904/DTD/svg10.dtd">
<svg version="1.0" id="Layer_1" xmlns="http://www.w3.org/2000/svg" xmlns:xlink="http://www.w3.org/1999/xlink" x="0px" y="0px"
	 width="50px" height="50px" viewBox="0 0 50 50" style="enable-background:new 0 0 50 50;" xml:space="preserve">
<path d="M7.293,25.707c-0.391-0.391-0.391-1.023,0-1.414l2.144-2.144C9.432,22.099,9.422,22.051,9.422,22
	c0-0.49,0.228-0.922,0.578-1.212V15c0-0.552,0.448-1,1-1s1,0.448,1,1v5.788c0.35,0.289,0.578,0.722,0.578,1.212
	c0,0.872-0.706,1.578-1.578,1.578c-0.051,0-0.099-0.01-0.149-0.015l-2.144,2.144C8.512,25.902,8.256,26,8,26
	S7.488,25.902,7.293,25.707z M50,32.385V42c0,1.57-1.43,3-3,3h-2v-1v-1h2c0.468,0,1-0.532,1-1v-8H38c-1.542,0-3-1.458-3-3v-4
	c0-1.598,1.402-3,3-3h4.846l-0.185-0.247C41.746,22.653,40.765,22,40,22h-8c-0.468,0-1,0.533-1,1v19c0,0.464,0.537,0.996,1.008,1
	h1.075c0.478-2.834,2.949-5,5.917-5c3.309,0,6,2.691,6,6s-2.691,6-6,6c-2.968,0-5.439-2.166-5.917-5H32
	c-0.709-0.005-1.38-0.308-1.912-0.771c-0.508,0.473-1.185,0.769-1.933,0.769H18.91C18.432,47.832,15.968,50,13,50
	s-5.432-2.168-5.91-5.002H5c-1.569,0-2.999-1.427-2.999-2.993V28.307C0.745,26.519,0,24.346,0,22c0-6.065,4.935-11,11-11
	c3.409,0,6.461,1.559,8.48,4.001h8.708c1.55,0,2.811,1.303,2.811,2.905v2.299C31.317,20.08,31.653,20,32,20h8
	c1.771,0,3.278,1.368,4.23,2.515l4.155,5.542C48.563,28.305,50,30.373,50,32.385z M35,44c0,2.206,1.794,4,4,4s4-1.794,4-4
	s-1.794-4-4-4S35,41.794,35,44z M2,22c0,4.963,4.038,9,9,9s9-4.037,9-9c0-4.962-4.038-9-9-9S2,17.038,2,22z M17,44
	c0-2.206-1.794-4-4-4s-4,1.794-4,4s1.794,4,4,4S17,46.206,17,44z M29.002,42.158v-0.141C29.002,42.012,29,42.006,29,42V23
	c0-0.006,0.002-0.012,0.002-0.018v-5.076c0-0.492-0.373-0.908-0.814-0.908h-7.403C21.556,18.501,22,20.198,22,22
	c0,6.065-4.935,11-11,11c-2.658,0-5.098-0.948-7.001-2.523v11.528c0,0.466,0.534,0.997,1.001,0.997h2.09
	C7.568,40.168,10.032,38,13,38s5.432,2.168,5.91,5.002h9.244C28.621,43.002,29.002,42.623,29.002,42.158z M47.972,32
	c-0.154-1.095-0.895-2.336-1.199-2.763L44.345,26H38c-0.453,0-1,0.446-1,1v4c0,0.448,0.552,1,1,1H47.972z"/>
</svg>
