<?xml version="1.0" encoding="utf-8"?>
<!-- Generator: Adobe Illustrator 17.0.2, SVG Export Plug-In . SVG Version: 6.00 Build 0)  -->
<!DOCTYPE svg PUBLIC "-//W3C//DTD SVG 1.0//EN" "http://www.w3.org/TR/2001/REC-SVG-20010904/DTD/svg10.dtd">
<svg version="1.0" id="Layer_1" xmlns="http://www.w3.org/2000/svg" xmlns:xlink="http://www.w3.org/1999/xlink" x="0px" y="0px"
	 width="50px" height="50px" viewBox="0 0 50 50" style="enable-background:new 0 0 50 50;" xml:space="preserve">
<path d="M49.857,16.485l-6-10c-0.009-0.014-0.025-0.021-0.034-0.035c-0.03-0.045-0.06-0.088-0.096-0.127
	c-0.009-0.009-0.011-0.021-0.02-0.031c-0.015-0.015-0.035-0.02-0.051-0.034c-0.036-0.032-0.068-0.068-0.107-0.094
	c-0.007-0.004-0.014-0.006-0.021-0.01c-0.031-0.019-0.065-0.031-0.098-0.047c-0.03-0.015-0.058-0.031-0.089-0.042
	c-0.054-0.02-0.11-0.03-0.167-0.04c-0.018-0.003-0.033-0.016-0.051-0.019c-0.014-0.002-0.028,0.006-0.042,0.005
	C43.053,6.01,43.027,6,43,6H15.463c-0.22,0-0.433,0.072-0.607,0.206L4.401,14.199c-0.019,0.014-0.037,0.028-0.054,0.044
	c-0.008,0.007-0.014,0.016-0.022,0.023c-0.018,0.017-0.033,0.036-0.049,0.054c-0.029,0.031-0.061,0.059-0.085,0.093
	c-0.02,0.027-0.031,0.06-0.048,0.089c-0.011,0.018-0.027,0.031-0.037,0.051l-4,8c-0.192,0.385-0.117,0.85,0.188,1.154
	C0.485,23.899,0.741,24,1.001,24c0.151,0,0.305-0.035,0.447-0.105L4,22.618V43c0,0.553,0.448,1,1,1h30
	c0.147,0,0.285-0.036,0.411-0.093c0.034-0.015,0.06-0.043,0.092-0.062c0.089-0.053,0.171-0.112,0.24-0.189
	c0.012-0.013,0.029-0.018,0.04-0.031l8-10C43.923,33.447,44,33.228,44,33v-9.558c0-0.008-0.005-0.015-0.005-0.023l5.712-5.712
	C50.031,17.383,50.094,16.879,49.857,16.485z M15.801,8h24.785l-6,6H7.954L15.801,8z M3.236,20.764L4,19.236v1.146L3.236,20.764z
	 M6,21v-5h28v26H6V21z M42,32.649l-6,7.5V18.61l4.143,6.904c0.158,0.264,0.43,0.44,0.735,0.478C40.919,25.997,40.959,26,41,26
	c0.264,0,0.519-0.104,0.707-0.293L42,25.414V32.649z M41.198,23.387l-4.939-8.232l3.271-3.271l3.271-3.271l4.939,8.232
	L41.198,23.387z M26,21c0,0.552-0.447,1-1,1H15c-0.552,0-1-0.448-1-1s0.448-1,1-1h10C25.553,20,26,20.448,26,21z"/>
</svg>
