<?xml version="1.0" encoding="utf-8"?>
<!-- Generator: Adobe Illustrator 17.0.2, SVG Export Plug-In . SVG Version: 6.00 Build 0)  -->
<!DOCTYPE svg PUBLIC "-//W3C//DTD SVG 1.0//EN" "http://www.w3.org/TR/2001/REC-SVG-20010904/DTD/svg10.dtd">
<svg version="1.0" id="Layer_1" xmlns="http://www.w3.org/2000/svg" xmlns:xlink="http://www.w3.org/1999/xlink" x="0px" y="0px"
	 width="50px" height="50px" viewBox="0 0 50 50" style="enable-background:new 0 0 50 50;" xml:space="preserve">
<path d="M49.857,16.485l-6-10c-0.009-0.016-0.027-0.023-0.037-0.038c-0.023-0.034-0.039-0.072-0.067-0.104
	c-0.024-0.028-0.05-0.054-0.077-0.079C43.651,6.24,43.619,6.23,43.591,6.21c-0.037-0.028-0.073-0.05-0.114-0.073
	c-0.091-0.05-0.184-0.084-0.284-0.103c-0.026-0.005-0.046-0.023-0.072-0.026c-0.01-0.001-0.02,0.004-0.031,0.003
	c-0.014-0.001-0.027-0.009-0.041-0.009v0c-0.001,0-0.002,0-0.003,0s-0.002,0-0.004,0c0,0,0,0-0.001,0h-0.001H43.04
	c-0.002,0-0.003-0.001-0.003,0c-0.001,0-0.001,0-0.001,0c-0.001,0-0.002,0-0.003,0c0,0,0,0-0.001,0c0,0-0.001,0-0.002,0h-0.001
	c-0.001,0-0.001,0-0.002,0c0,0,0,0-0.001,0c0,0-0.001,0-0.002,0c0,0,0,0-0.001,0c-0.002,0-0.003,0-0.003,0c-0.001,0-0.001,0-0.002,0
	h-0.001c-0.001,0-0.001,0-0.002,0h-0.001c-0.001,0-0.002,0-0.002,0c-0.001,0-0.001,0-0.001,0c-0.001,0-0.002,0-0.003,0
	s-0.002,0-0.002,0c-0.001,0-0.001,0-0.001,0c-0.001,0-0.002,0-0.002,0c-0.001,0-0.001,0-0.001,0C43.002,6,43.001,6,43,6h-8.949
	l-4.196-4.452c-0.365-0.388-0.973-0.421-1.377-0.074L24.243,5.09L22.827,3.5c-0.184-0.207-0.446-0.329-0.723-0.335
	c-0.297-0.014-0.545,0.102-0.738,0.299L18.88,6h-3.417c-0.22,0-0.433,0.072-0.607,0.206l-10.463,8
	c-0.016,0.012-0.025,0.029-0.04,0.042c-0.017,0.015-0.037,0.025-0.054,0.041c-0.016,0.016-0.024,0.037-0.039,0.054
	c-0.003,0.004-0.006,0.009-0.009,0.012c-0.04,0.046-0.076,0.093-0.106,0.145c-0.011,0.019-0.029,0.033-0.039,0.053l-4,8
	c-0.192,0.385-0.117,0.85,0.188,1.154C0.485,23.899,0.741,24,1.001,24c0.151,0,0.305-0.035,0.447-0.105L4,22.618V43
	c0,0.553,0.448,1,1,1h30c0.147,0,0.285-0.036,0.411-0.093c0.034-0.015,0.06-0.043,0.092-0.062c0.089-0.053,0.171-0.112,0.24-0.189
	c0.012-0.013,0.029-0.018,0.04-0.031l8-10C43.923,33.447,44,33.228,44,33v-9.586l5.707-5.707
	C50.031,17.383,50.094,16.879,49.857,16.485z M40.586,8l-2.394,2.394L35.936,8H40.586z M29.053,3.613l7.724,8.196L34.586,14h-2.447
	c-0.023-0.034-0.033-0.073-0.061-0.104l-6.506-7.311L29.053,3.613z M22.044,5.628L29.494,14H13.836L22.044,5.628z M15.801,8h1.117
	l-5.883,6H7.954L15.801,8z M3.236,20.764L4,19.236v1.146L3.236,20.764z M6,21v-5h28v26H6V21z M42,32.649l-6,7.5V18.61l4.143,6.904
	c0.158,0.264,0.43,0.44,0.735,0.478C40.919,25.997,40.959,26,41,26c0.264,0,0.519-0.104,0.707-0.293L42,25.414V32.649z
	 M41.198,23.387l-4.939-8.232l3.271-3.271l3.271-3.271l4.939,8.232L41.198,23.387z M26,21c0,0.552-0.447,1-1,1H15
	c-0.552,0-1-0.448-1-1s0.448-1,1-1h10C25.553,20,26,20.448,26,21z"/>
</svg>
