<?xml version="1.0" encoding="utf-8"?>
<!-- Generator: Adobe Illustrator 17.0.2, SVG Export Plug-In . SVG Version: 6.00 Build 0)  -->
<!DOCTYPE svg PUBLIC "-//W3C//DTD SVG 1.0//EN" "http://www.w3.org/TR/2001/REC-SVG-20010904/DTD/svg10.dtd">
<svg version="1.0" id="Layer_1" xmlns="http://www.w3.org/2000/svg" xmlns:xlink="http://www.w3.org/1999/xlink" x="0px" y="0px"
	 width="50px" height="50px" viewBox="0 0 50 50" style="enable-background:new 0 0 50 50;" xml:space="preserve">
<path d="M18.38,31.51C20.985,34.113,22,36.774,22,41v8c0,0.553-0.448,1-1,1s-1-0.447-1-1v-8c0-3.677-0.822-5.865-3.034-8.076
	l-8.253-8.253c-0.543-0.542-1.423-0.663-2.082-0.312c-0.063,0.052-0.133,0.096-0.208,0.131c-0.075,0.054-0.145,0.115-0.211,0.181
	c-0.335,0.334-0.519,0.779-0.519,1.251s0.184,0.917,0.518,1.251l7.932,7.933c0.391,0.391,0.391,1.023,0,1.414s-1.023,0.391-1.414,0
	l-7.933-7.933c-0.711-0.712-1.104-1.658-1.104-2.665c0-1.007,0.392-1.954,1.104-2.666C4.863,23.191,4.931,23.128,5,23.067V12.5
	C5,11.673,4.327,11,3.5,11S2,11.673,2,12.5v14.908c0,3.127,0.536,3.696,1.508,4.729c0.127,0.136,0.259,0.275,0.396,0.426
	c1.285,1.418,8.565,10.426,8.874,10.808C12.921,43.55,13,43.771,13,44v5c0,0.553-0.448,1-1,1s-1-0.447-1-1v-4.646
	c-1.257-1.555-7.453-9.205-8.578-10.446c-0.128-0.141-0.251-0.272-0.37-0.398C0.78,32.157,0,31.139,0,27.408V12.5
	c0,0,0-0.001,0-0.001C0.001,10.569,1.571,9,3.5,9s3.499,1.569,3.5,3.499c0,0,0,0.001,0,0.001v9.68
	c1.131-0.141,2.305,0.254,3.127,1.077L18.38,31.51z M46.5,9c-1.93,0-3.499,1.569-3.5,3.499c0,0,0,0.001,0,0.001v9.68
	c-1.137-0.139-2.306,0.255-3.127,1.077L31.62,31.51C29.015,34.113,28,36.774,28,41v8c0,0.553,0.447,1,1,1s1-0.447,1-1v-8
	c0-3.677,0.822-5.865,3.034-8.076l8.253-8.253c0.543-0.542,1.425-0.662,2.082-0.312c0.063,0.052,0.133,0.096,0.208,0.13
	c0.074,0.055,0.146,0.115,0.212,0.182c0.334,0.333,0.519,0.778,0.519,1.25s-0.185,0.917-0.519,1.251l-7.932,7.933
	c-0.391,0.391-0.391,1.023,0,1.414s1.023,0.391,1.414,0l7.932-7.933c0.712-0.712,1.104-1.658,1.104-2.665
	c0-1.007-0.393-1.954-1.104-2.665c-0.065-0.065-0.134-0.129-0.203-0.189V12.5c0-0.827,0.673-1.5,1.5-1.5s1.5,0.673,1.5,1.5v14.908
	c0,3.127-0.536,3.696-1.509,4.729c-0.127,0.136-0.259,0.275-0.396,0.426c-1.285,1.418-8.564,10.426-8.874,10.808
	C37.078,43.55,37,43.771,37,44v5c0,0.553,0.447,1,1,1s1-0.447,1-1v-4.646c1.258-1.555,7.452-9.205,8.578-10.446
	c0.127-0.141,0.251-0.272,0.37-0.398C49.22,32.157,50,31.139,50,27.408V12.5c0,0,0-0.001,0-0.001C49.999,10.569,48.43,9,46.5,9z
	 M37.633,20.319l-11.97,9.793c-0.177,0.157-0.408,0.252-0.663,0.252c-0.254,0-0.487-0.095-0.663-0.252l-11.97-9.793
	C12.135,20.129,12,19.845,12,19.545V7.56c-0.003-0.189,0.047-0.381,0.156-0.552c0.098-0.153,0.23-0.271,0.38-0.349l11.984-6.537
	c0.299-0.163,0.661-0.163,0.958,0l11.984,6.536c0.15,0.079,0.283,0.196,0.381,0.35C37.952,7.179,38.003,7.371,38,7.56v11.985
	C38,19.845,37.865,20.129,37.633,20.319z M24,15.73L14,9.367v9.705l10,8.182V15.73z M35.033,7.611L25,2.139L14.967,7.611L25,13.996
	L35.033,7.611z M36,9.367L26,15.73v11.523l10-8.182V9.367z"/>
</svg>
