<svg xmlns="http://www.w3.org/2000/svg" viewBox="0 0 50 50" enable-background="new 0 0 50 50">
    <path style="text-indent:0;text-align:start;line-height:normal;text-transform:none;block-progression:tb;-inkscape-font-specification:Bitstream Vera Sans" d="M 24.90625 3.96875 A 1.0001 1.0001 0 0 0 24.8125 4 L 11 4 A 1.0001 1.0001 0 0 0 10.90625 4 A 1.0001 1.0001 0 0 0 10.8125 4 A 1.0001 1.0001 0 0 0 10.375 4.21875 L 4.46875 9.15625 L 4.375 9.21875 A 1.0001 1.0001 0 0 0 4.25 9.3125 A 1.0004882 1.0004882 0 0 0 4.21875 9.34375 A 1.0001 1.0001 0 0 0 4.21875 9.375 A 1.0004882 1.0004882 0 0 0 4.1875 9.375 A 1.0001 1.0001 0 0 0 4.1875 9.4375 A 1.0001 1.0001 0 0 0 4.125 9.53125 A 1.0004882 1.0004882 0 0 0 4.03125 9.71875 A 1.0001 1.0001 0 0 0 4 9.90625 A 1.0004882 1.0004882 0 0 0 4 10.09375 L 4 45 A 1.0001 1.0001 0 0 0 5 46 L 45 46 A 1.0001 1.0001 0 0 0 46 45 L 46 10.15625 A 1.0004882 1.0004882 0 0 0 46 10 A 1.0001 1.0001 0 0 0 46 9.9375 A 1.0004882 1.0004882 0 0 0 46 9.90625 A 1.0001 1.0001 0 0 0 46 9.84375 A 1.0004882 1.0004882 0 0 0 45.96875 9.8125 A 1.0001 1.0001 0 0 0 45.96875 9.75 A 1.0004882 1.0004882 0 0 0 45.96875 9.71875 A 1.0001 1.0001 0 0 0 45.9375 9.65625 A 1.0004882 1.0004882 0 0 0 45.90625 9.625 A 1.0001 1.0001 0 0 0 45.90625 9.5625 A 1.0004882 1.0004882 0 0 0 45.875 9.53125 A 1.0001 1.0001 0 0 0 45.84375 9.46875 A 1.0004882 1.0004882 0 0 0 45.8125 9.4375 A 1.0001 1.0001 0 0 0 45.78125 9.40625 A 1.0004882 1.0004882 0 0 0 45.75 9.34375 A 1.0001 1.0001 0 0 0 45.71875 9.3125 A 1.0004882 1.0004882 0 0 0 45.6875 9.28125 A 1.0001 1.0001 0 0 0 45.65625 9.25 A 1.0004882 1.0004882 0 0 0 45.625 9.21875 L 45.53125 9.15625 A 1.0001 1.0001 0 0 0 45.46875 9.09375 L 39.625 4.21875 A 1.0001 1.0001 0 0 0 39 4 L 25.21875 4 A 1.0001 1.0001 0 0 0 24.90625 3.96875 z M 11.375 6 L 24 6 L 24 9 L 7.78125 9 L 11.375 6 z M 26 6 L 38.625 6 L 42.21875 9 L 26 9 L 26 6 z M 6 11 L 44 11 L 44 44 L 6 44 L 6 11 z M 21.5 15 C 20.116667 15 19 16.116667 19 17.5 C 19 18.883333 20.116667 20 21.5 20 L 28.5 20 C 29.883333 20 31 18.883333 31 17.5 C 31 16.116667 29.883333 15 28.5 15 L 21.5 15 z M 21.5 17 L 28.5 17 C 28.716667 17 29 17.283333 29 17.5 C 29 17.716667 28.716667 18 28.5 18 L 21.5 18 C 21.283333 18 21 17.716667 21 17.5 C 21 17.283333 21.283333 17 21.5 17 z M 31 31 L 28 34 L 30 34 L 30 38 L 32 38 L 32 34 L 34 34 L 31 31 z M 38 31 L 35 34 L 37 34 L 37 38 L 39 38 L 39 34 L 41 34 L 38 31 z M 28 39 L 28 41 L 41 41 L 41 39 L 28 39 z"/>
</svg>
