<svg xmlns="http://www.w3.org/2000/svg" width="50" height="50" viewBox="0 0 50 50">
    <path d="M 11 4 C 10.766 4 10.555 4.06875 10.375 4.21875 L 4.625 9 L 24 9 L 24 4 L 11 4 z M 26 4 L 26 9 L 45.375 9 L 39.65625 4.21875 C 39.47625 4.06875 39.234 4 39 4 L 26 4 z M 4 11 L 4 45 C 4 45.553 4.448 46 5 46 L 45 46 C 45.553 46 46 45.553 46 45 L 46 11 L 25 11 L 4 11 z M 21.5 16 L 28.5 16 C 29.3 16 30 16.7 30 17.5 C 30 18.3 29.3 19 28.5 19 L 21.5 19 C 20.7 19 20 18.3 20 17.5 C 20 16.7 20.7 16 21.5 16 z M 31 31 L 34 34 L 32 34 L 32 38 L 30 38 L 30 34 L 28 34 L 31 31 z M 38 31 L 41 34 L 39 34 L 39 38 L 37 38 L 37 34 L 35 34 L 38 31 z M 28 39 L 41 39 L 41 41 L 28 41 L 28 39 z"/>
</svg>
