<?xml version="1.0" encoding="utf-8"?>
<!-- Generator: Adobe Illustrator 17.0.2, SVG Export Plug-In . SVG Version: 6.00 Build 0)  -->
<!DOCTYPE svg PUBLIC "-//W3C//DTD SVG 1.0//EN" "http://www.w3.org/TR/2001/REC-SVG-20010904/DTD/svg10.dtd">
<svg version="1.0" id="Layer_1" xmlns="http://www.w3.org/2000/svg" xmlns:xlink="http://www.w3.org/1999/xlink" x="0px" y="0px"
	 width="50px" height="50px" viewBox="0 0 50 50" style="enable-background:new 0 0 50 50;" xml:space="preserve">
<path d="M40.737,35.352l7.191-19c0.194-0.513-0.063-1.086-0.577-1.281c-0.51-0.194-1.086,0.064-1.28,0.578l-6.949,18.358H20.978
	L14.144,6.413c-0.679-2.289-1.813-4.407-5.479-4.407H2.063C2.042,2.006,2.022,2,2,2C0.895,2,0,2.895,0,4c0,1.105,0.895,2,2,2
	s2-0.895,2-2c0-0.002-0.001-0.004-0.001-0.006h4.665c2.086,0,2.888,0.669,3.562,2.941l7.998,32.294
	c0.425,1.611,0.899,3.372,2.712,4.231C22.361,44.153,22,45.031,22,46c0,2.206,1.794,4,4,4c2.206,0,4-1.794,4-4
	c0-0.735-0.213-1.415-0.56-2.007h6.12C35.213,44.585,35,45.265,35,46c0,2.206,1.794,4,4,4s4-1.794,4-4
	c0-1.044-0.411-1.987-1.067-2.7c0.031-0.096,0.061-0.194,0.061-0.3c0-0.549-0.444-0.993-0.993-0.993h-1.932
	C39.045,42.006,39.023,42,39,42s-0.045,0.006-0.068,0.007H26.068C26.045,42.006,26.023,42,26,42s-0.044,0.006-0.068,0.007h-0.223
	c-2.696,0-2.986-1.099-3.56-3.271l-0.679-2.742h18.338C40.222,35.993,40.592,35.738,40.737,35.352z M26,48c-1.103,0-2-0.897-2-2
	s0.897-2,2-2c1.103,0,2,0.897,2,2S27.103,48,26,48z M39,48c-1.103,0-2-0.897-2-2s0.897-2,2-2s2,0.897,2,2S40.103,48,39,48z
	 M25.293,17.707c-0.391-0.391-0.391-1.023,0-1.414s1.023-0.391,1.414,0L30,19.586V2c0-0.552,0.447-1,1-1s1,0.448,1,1v17.586
	l3.293-3.293c0.391-0.391,1.023-0.391,1.414,0s0.391,1.023,0,1.414L31,23.414L25.293,17.707z"/>
</svg>
