<?xml version="1.0" encoding="utf-8"?>
<!-- Generator: Adobe Illustrator 17.0.2, SVG Export Plug-In . SVG Version: 6.00 Build 0)  -->
<!DOCTYPE svg PUBLIC "-//W3C//DTD SVG 1.0//EN" "http://www.w3.org/TR/2001/REC-SVG-20010904/DTD/svg10.dtd">
<svg version="1.0" id="Layer_1" xmlns="http://www.w3.org/2000/svg" xmlns:xlink="http://www.w3.org/1999/xlink" x="0px" y="0px"
	 width="50px" height="50px" viewBox="0 0 50 50" style="enable-background:new 0 0 50 50;" xml:space="preserve">
<path d="M49.352,31.564c-0.677-0.887-2.236-2.006-5.445-0.604c-0.07-0.29-0.183-0.554-0.337-0.79
	c-0.38-0.583-0.979-0.959-1.779-1.117c-1.031-0.208-2.34,0.014-3.6,0.567c-0.195-0.507-0.521-0.827-0.774-1.014
	c-1.491-1.094-4.243-0.377-5.634,0.451c-1.32,0.786-5.351,3.331-6.634,4.144c-1.273-0.334-2.384-0.713-2.888-1.015
	c-0.291-0.175-0.597-0.512-0.952-0.901C20.119,29.977,18.321,28,13.464,28c-2.522,0-3.711,0.492-4.97,1.014l-0.575,0.234
	c-2.629,1.042-7.16,3.216-7.352,3.308c-0.498,0.239-0.708,0.837-0.468,1.334c0.24,0.499,0.838,0.709,1.334,0.469
	c0.046-0.022,4.659-2.235,7.222-3.251c0.209-0.082,0.408-0.165,0.604-0.246C10.421,30.38,11.34,30,13.464,30
	c3.973,0,5.244,1.397,6.365,2.63c0.442,0.486,0.86,0.945,1.403,1.271c0.671,0.402,2.061,0.884,3.612,1.284
	c0.132,0.066,0.277,0.103,0.424,0.106C26.944,35.7,28.744,36,30,36c1.12,0,3,0.195,3,1.5c0,0.371,0,1.5-3,1.5h-5.801
	c-2.521,0-5.891-0.952-5.925-0.962c-0.531-0.147-1.084,0.156-1.236,0.688s0.156,1.084,0.687,1.236
	C17.874,40.004,21.395,41,24.199,41H30c2.312,0,3.579-0.619,4.259-1.396c0.051-0.022,0.101-0.05,0.148-0.082l9.002-6.056
	c2.135-1.265,3.721-1.514,4.354-0.687c0.247,0.323,0.242,0.576,0.218,0.739c-0.053,0.351-0.357,1.091-1.801,2.113
	c-1.293,0.918-14.212,9.511-15.966,10.526c-0.286,0.165-0.567,0.343-0.852,0.521c-1.771,1.115-3.303,2.081-6.643,0.454
	c-1.046-0.51-4.427-2.266-6.895-3.548l-2.127-1.104c-2.343-1.21-3.559-0.91-5.254,0.172l-2.698,1.76
	c-0.462,0.302-0.593,0.922-0.291,1.384c0.302,0.463,0.922,0.592,1.384,0.292l2.69-1.755c1.231-0.786,1.679-0.887,3.251-0.075
	l2.123,1.101c2.478,1.288,5.872,3.051,6.942,3.572c1.591,0.774,2.915,1.065,4.047,1.065c1.957,0,3.341-0.872,4.538-1.626
	c0.263-0.166,0.523-0.33,0.787-0.483c1.859-1.076,14.772-9.668,16.121-10.626c1.56-1.105,2.441-2.264,2.621-3.444
	C50.08,33.021,49.87,32.242,49.352,31.564z M31.438,34.1C31.011,34.035,30.534,34,30,34c-0.561,0-1.277-0.076-2.052-0.201
	c1.704-1.074,3.958-2.487,4.857-3.022c1.102-0.656,2.895-0.948,3.427-0.558c0.12,0.089,0.144,0.281,0.126,0.488L31.438,34.1z
	 M41.978,32.019l-7.063,4.751c-0.131-0.557-0.449-1.255-1.199-1.811l4.123-2.843c0.04-0.027,0.078-0.058,0.112-0.09
	c1.338-0.899,2.72-1.161,3.451-1.012c0.252,0.05,0.418,0.133,0.493,0.249C41.943,31.338,42.033,31.546,41.978,32.019z M31.5,4h-9
	C21.122,4,20,5.122,20,6.5S21.122,9,22.5,9h9C32.879,9,34,7.878,34,6.5S32.879,4,31.5,4z M31.5,7h-9C22.224,7,22,6.776,22,6.5
	S22.224,6,22.5,6h9C31.775,6,32,6.224,32,6.5S31.775,7,31.5,7z M12,24h30c1.103,0,2-0.897,2-2V2c0-1.103-0.897-2-2-2H12
	c-1.103,0-2,0.897-2,2v20C10,23.103,10.897,24,12,24z M12,2h30l0.001,20H12V2z"/>
</svg>
