<?xml version="1.0" encoding="utf-8"?>
<!-- Generator: Adobe Illustrator 17.0.2, SVG Export Plug-In . SVG Version: 6.00 Build 0)  -->
<!DOCTYPE svg PUBLIC "-//W3C//DTD SVG 1.0//EN" "http://www.w3.org/TR/2001/REC-SVG-20010904/DTD/svg10.dtd">
<svg version="1.0" id="Layer_1" xmlns="http://www.w3.org/2000/svg" xmlns:xlink="http://www.w3.org/1999/xlink" x="0px" y="0px"
	 width="50px" height="50px" viewBox="0 0 50 50" style="enable-background:new 0 0 50 50;" xml:space="preserve">
<path d="M46,11.902V6H4v5.902c-0.145,0.739-1,5.208-1,7.598c0,1.538,0.354,2.811,1,3.744V48h42V23.244c0.646-0.933,1-2.207,1-3.744
	C47,17.111,46.145,12.642,46,11.902z M6,8h38v3h-5H6V8z M38,13v8.922C37.339,22.611,36.444,23,35.5,23s-1.839-0.389-2.5-1.078V13H38
	z M31,13v8.922C30.339,22.611,29.444,23,28.5,23c-0.943,0-1.838-0.389-2.5-1.078V13H31z M24,13v8.922
	C23.338,22.611,22.444,23,21.5,23c-0.943,0-1.838-0.389-2.5-1.078V13H24z M17,13v8.922C16.338,22.611,15.443,23,14.5,23
	s-1.838-0.389-2.5-1.078V13H17z M5.717,22.215C5.154,21.514,5,20.452,5,19.5c0-1.778,0.552-5.002,0.828-6.5H10v8.922
	C9.338,22.611,8.443,23,7.5,23c-0.774,0-1.319-0.267-1.698-0.685C5.776,22.28,5.748,22.247,5.717,22.215z M39,46h-7V30h7V46z M44,46
	h-3V28H30v18H6V24.765C6.457,24.92,6.958,25,7.5,25c1.291,0,2.52-0.457,3.5-1.279C11.98,24.543,13.209,25,14.5,25
	s2.52-0.457,3.5-1.279C18.98,24.543,20.209,25,21.5,25s2.52-0.457,3.5-1.279C25.98,24.543,27.209,25,28.5,25s2.521-0.457,3.5-1.278
	C32.979,24.543,34.209,25,35.5,25s2.521-0.457,3.5-1.278C39.979,24.543,41.209,25,42.5,25c0.542,0,1.043-0.08,1.5-0.235V46z
	 M44.457,21.966c-0.176,0.114-0.314,0.282-0.391,0.481C43.696,22.789,43.188,23,42.5,23c-0.944,0-1.839-0.389-2.5-1.078V13h4.172
	C44.447,14.498,45,17.721,45,19.5C45,20.345,44.878,21.277,44.457,21.966z M9,43h18V28H9V43z M11,30h14v11H11V30z"/>
</svg>
