<?xml version="1.0" encoding="utf-8"?>
<!-- Generator: Adobe Illustrator 17.0.2, SVG Export Plug-In . SVG Version: 6.00 Build 0)  -->
<!DOCTYPE svg PUBLIC "-//W3C//DTD SVG 1.0//EN" "http://www.w3.org/TR/2001/REC-SVG-20010904/DTD/svg10.dtd">
<svg version="1.0" id="Layer_1" xmlns="http://www.w3.org/2000/svg" xmlns:xlink="http://www.w3.org/1999/xlink" x="0px" y="0px"
	 width="50px" height="50px" viewBox="0 0 50 50" style="enable-background:new 0 0 50 50;" xml:space="preserve">
<path d="M40.737,35.352l7.191-19c0.116-0.305,0.074-0.647-0.111-0.916S47.326,15.006,47,15.006H16.272l-2.128-8.593
	c-0.679-2.289-1.813-4.407-5.479-4.407H2.063C2.042,2.006,2.022,2,2,2C0.895,2,0,2.895,0,4c0,1.105,0.895,2,2,2s2-0.895,2-2
	c0-0.002-0.001-0.004-0.001-0.006h4.665c2.086,0,2.888,0.669,3.562,2.941l7.999,32.293c0.425,1.612,0.898,3.373,2.711,4.232
	C22.361,44.153,22,45.031,22,46c0,2.206,1.794,4,4,4c2.206,0,4-1.794,4-4c0-0.735-0.213-1.415-0.56-2.007h6.12
	C35.213,44.585,35,45.265,35,46c0,2.206,1.794,4,4,4s4-1.794,4-4c0-1.044-0.411-1.987-1.067-2.7c0.031-0.096,0.061-0.194,0.061-0.3
	c0-0.549-0.444-0.993-0.993-0.993h-1.932C39.045,42.006,39.023,42,39,42s-0.045,0.006-0.068,0.007H26.068
	C26.045,42.006,26.023,42,26,42s-0.044,0.006-0.068,0.007h-0.223c-2.697,0-2.986-1.099-3.559-3.271l-0.679-2.742h18.337
	C40.222,35.993,40.592,35.738,40.737,35.352z M26,48c-1.103,0-2-0.897-2-2s0.897-2,2-2c1.103,0,2,0.897,2,2S27.103,48,26,48z M39,48
	c-1.103,0-2-0.897-2-2s0.897-2,2-2s2,0.897,2,2S40.103,48,39,48z M20.979,34.007l-4.215-17.013h28.797l-6.439,17.013H20.979z"/>
</svg>
