<?xml version="1.0" encoding="utf-8"?>
<!-- Generator: Adobe Illustrator 17.0.2, SVG Export Plug-In . SVG Version: 6.00 Build 0)  -->
<!DOCTYPE svg PUBLIC "-//W3C//DTD SVG 1.0//EN" "http://www.w3.org/TR/2001/REC-SVG-20010904/DTD/svg10.dtd">
<svg version="1.0" id="Layer_1" xmlns="http://www.w3.org/2000/svg" xmlns:xlink="http://www.w3.org/1999/xlink" x="0px" y="0px"
	 width="50px" height="50px" viewBox="0 0 50 50" style="enable-background:new 0 0 50 50;" xml:space="preserve">
<path d="M48.892,38.003c-0.779-0.545-9.21-6.151-10.228-6.773c-0.955-0.583-2.406-0.477-3.803,0.262
	c-0.842,0.442-3.466,1.937-4.607,2.588c-0.997-0.691-3.567-2.622-7.643-6.697c-4.077-4.076-6.005-6.646-6.694-7.642
	c0.651-1.141,2.145-3.765,2.585-4.605c0.762-1.443,0.857-2.872,0.254-3.821c-0.61-0.962-6.188-9.42-6.771-10.227
	C11.096-0.145,8.908-0.36,7.282,0.776C7.209,0.827-0.09,6.165,0.002,9.04c0.27,8.505,8.575,18.539,15.494,25.459
	c6.918,6.92,16.95,15.227,25.489,15.5h0.045h0.016c2.854,0,8.118-7.212,8.167-7.283c0.578-0.823,0.853-1.767,0.774-2.658
	C49.91,39.186,49.511,38.437,48.892,38.003z M47.574,41.569c-1.688,2.419-5.476,6.43-6.528,6.43v1l-0.03-1.001
	c-7.852-0.251-17.442-8.248-24.105-14.913C10.246,26.421,2.251,16.828,2,8.946C1.989,7.903,6.002,4.111,8.428,2.416
	C8.919,2.072,9.347,2,9.62,2c0.408,0,0.674,0.158,0.746,0.258c0.545,0.755,6.124,9.212,6.703,10.126
	c0.132,0.208,0.158,0.885-0.335,1.819c-0.541,1.032-2.833,5.036-2.856,5.076l-0.288,0.503l0.293,0.5
	c0.069,0.118,1.763,2.961,7.315,8.513c5.553,5.553,8.395,7.249,8.513,7.318l0.5,0.294l0.504-0.288
	c0.04-0.023,4.045-2.315,5.08-2.859C36.289,33,36.8,32.85,37.2,32.85c0.244,0,0.369,0.055,0.422,0.087
	c0.999,0.61,9.472,6.249,10.123,6.705c0.073,0.051,0.219,0.24,0.25,0.592C48.032,40.655,47.883,41.129,47.574,41.569z"/>
</svg>
