<?xml version="1.0" encoding="utf-8"?>
<!-- Generator: Adobe Illustrator 17.1.0, SVG Export Plug-In . SVG Version: 6.00 Build 0)  -->
<!DOCTYPE svg PUBLIC "-//W3C//DTD SVG 1.0//EN" "http://www.w3.org/TR/2001/REC-SVG-20010904/DTD/svg10.dtd">
<svg version="1.0" id="Layer_1" xmlns="http://www.w3.org/2000/svg" xmlns:xlink="http://www.w3.org/1999/xlink" x="0px" y="0px"
	 viewBox="0 0 50 50" style="enable-background:new 0 0 50 50;" xml:space="preserve">
<path d="M41,1H9C7.346,1,6,2.346,6,4v42c0,1.654,1.346,3,3,3h32c1.654,0,3-1.346,3-3V4C44,2.346,42.654,1,41,1z M42,46
	c0,0.552-0.448,1-1,1H9c-0.551,0-1-0.448-1-1V4c0-0.551,0.449-1,1-1h32c0.552,0,1,0.449,1,1V46z M25,31c6.065,0,11-4.935,11-11
	S31.065,9,25,9s-11,4.935-11,11S18.935,31,25,31z M33.944,19h-2.967c-0.124-2.766-0.759-5.178-1.744-6.94
	C31.789,13.427,33.61,15.992,33.944,19z M30.978,21h2.967c-0.334,3.008-2.155,5.573-4.711,6.94
	C30.219,26.179,30.854,23.766,30.978,21z M26,11.328c1.443,0.935,2.776,3.799,2.975,7.672H26V11.328z M26,21h2.975
	c-0.198,3.873-1.531,6.737-2.975,7.672V21z M24,11.328V19h-2.975C21.224,15.127,22.557,12.263,24,11.328z M24,21v7.672
	c-1.443-0.935-2.776-3.799-2.975-7.672H24z M20.767,12.06c-0.985,1.762-1.621,4.175-1.745,6.94h-2.967
	C16.389,15.992,18.211,13.427,20.767,12.06z M19.022,21c0.124,2.766,0.76,5.179,1.745,6.94c-2.555-1.367-4.377-3.933-4.711-6.94
	H19.022z M38,39c0,0.553-0.447,1-1,1H13c-0.552,0-1-0.447-1-1s0.448-1,1-1h24C37.553,38,38,38.447,38,39z"/>
</svg>
