<?xml version="1.0" encoding="utf-8"?>
<!-- Generator: Adobe Illustrator 17.0.2, SVG Export Plug-In . SVG Version: 6.00 Build 0)  -->
<!DOCTYPE svg PUBLIC "-//W3C//DTD SVG 1.0//EN" "http://www.w3.org/TR/2001/REC-SVG-20010904/DTD/svg10.dtd">
<svg version="1.0" id="Layer_1" xmlns="http://www.w3.org/2000/svg" xmlns:xlink="http://www.w3.org/1999/xlink" x="0px" y="0px"
	 width="50px" height="50px" viewBox="0 0 50 50" style="enable-background:new 0 0 50 50;" xml:space="preserve">
<path d="M43.259,28.409c-0.194-0.762-0.854-1.286-1.638-1.286c-0.244,0-0.489,0.055-0.713,0.156l-12.001,4.562
	c-0.492,0.126-0.895,0.449-1.113,0.897c-0.221,0.452-0.226,0.99-0.015,1.451l1.962,5.2c0.194,0.762,0.854,1.286,1.638,1.286
	c0.244,0,0.489-0.055,0.714-0.156l11.999-4.562c0.492-0.126,0.895-0.448,1.113-0.896c0.222-0.452,0.227-0.991,0.017-1.454
	L43.259,28.409z M31.572,38.578l-1.852-4.906l11.707-4.45l1.852,4.906L31.572,38.578z M46.9,12H32V7.2C32,5.946,31.054,5,29.8,5
	h-9.6C18.946,5,18,5.946,18,7.2V12H3.1C1.362,12,0,13.362,0,15.1v31.8C0,48.639,1.362,50,3.1,50h43.8c1.738,0,3.1-1.361,3.1-3.1
	V15.1C50,13.362,48.639,12,46.9,12z M20,7.2C20,7.052,20.052,7,20.2,7h9.6C29.947,7,30,7.052,30,7.2V12H20V7.2z M48,46.9
	c0,0.647-0.452,1.1-1.1,1.1H3.1C2.452,48,2,47.548,2,46.9V15.1C2,14.452,2.452,14,3.1,14h43.8c0.647,0,1.1,0.452,1.1,1.1V46.9z
	 M32,23.5c0-3.033-2.468-5.5-5.5-5.5c-3.033,0-5.5,2.467-5.5,5.5c0,3.032,2.467,5.5,5.5,5.5C29.532,29,32,26.532,32,23.5z M26.5,27
	c-1.93,0-3.5-1.57-3.5-3.5s1.57-3.5,3.5-3.5s3.5,1.57,3.5,3.5S28.43,27,26.5,27z"/>
</svg>
