<?xml version="1.0" encoding="utf-8"?>
<!-- Generator: Adobe Illustrator 17.0.2, SVG Export Plug-In . SVG Version: 6.00 Build 0)  -->
<!DOCTYPE svg PUBLIC "-//W3C//DTD SVG 1.0//EN" "http://www.w3.org/TR/2001/REC-SVG-20010904/DTD/svg10.dtd">
<svg version="1.0" id="Layer_1" xmlns="http://www.w3.org/2000/svg" xmlns:xlink="http://www.w3.org/1999/xlink" x="0px" y="0px"
	 width="50px" height="50px" viewBox="0 0 50 50" style="enable-background:new 0 0 50 50;" xml:space="preserve">
<path d="M48.991,0.978c-0.543-0.519-1.288-0.782-2.215-0.782c-3.764,0-10.161,4.492-11.483,5.897l-6.75,6.75L4.533,9.609
	c-0.312-0.04-0.629,0.067-0.851,0.294l-3.4,3.5c-0.233,0.24-0.331,0.581-0.26,0.908s0.301,0.598,0.613,0.72l18.491,7.248L9.581,32H5
	c-0.237,0-0.467,0.084-0.647,0.238l-4,3.4c-0.286,0.243-0.412,0.625-0.326,0.99s0.369,0.652,0.733,0.742l9.515,2.355l2.355,9.514
	c0.084,0.34,0.339,0.61,0.673,0.714c0.333,0.106,0.698,0.026,0.959-0.204l3.4-3C17.877,46.56,18,46.287,18,46v-5.578l9.813-9.551
	l7.154,18.49c0.121,0.312,0.392,0.544,0.719,0.615C35.758,49.992,35.829,50,35.9,50c0.258,0,0.508-0.1,0.697-0.283l3.5-3.4
	c0.227-0.221,0.336-0.536,0.294-0.851l-3.234-24.009l6.75-6.75C45.289,13.326,52.063,4.186,48.991,0.978z M35.393,20.393
	c-0.221,0.221-0.325,0.531-0.284,0.84l3.233,24l-2.055,1.996l-7.154-18.491c-0.121-0.312-0.392-0.544-0.72-0.615
	c-0.07-0.016-0.142-0.023-0.213-0.023c-0.258,0-0.509,0.1-0.697,0.283l-11.2,10.9C16.109,39.472,16,39.73,16,40v5.549l-1.825,1.61
	l-2.104-8.499c-0.089-0.36-0.37-0.642-0.73-0.73l-8.206-2.031L5.368,34H10c0.269,0,0.525-0.107,0.713-0.3l10.9-11.1
	c0.235-0.24,0.334-0.581,0.265-0.91c-0.07-0.328-0.3-0.6-0.613-0.722l-18.5-7.251l2.001-2.06l24,3.233
	c0.314,0.04,0.621-0.063,0.841-0.284l7.121-7.122c1.203-1.279,7.082-5.29,10.048-5.29c0.271,0,0.636,0.04,0.801,0.196
	c1.398,1.461-3.043,8.86-5.084,10.901L35.393,20.393z"/>
</svg>
