<?xml version="1.0" encoding="utf-8"?>
<!-- Generator: Adobe Illustrator 17.1.0, SVG Export Plug-In . SVG Version: 6.00 Build 0)  -->
<!DOCTYPE svg PUBLIC "-//W3C//DTD SVG 1.0//EN" "http://www.w3.org/TR/2001/REC-SVG-20010904/DTD/svg10.dtd">
<svg version="1.0" id="Layer_1" xmlns="http://www.w3.org/2000/svg" xmlns:xlink="http://www.w3.org/1999/xlink" x="0px" y="0px"
	 viewBox="0 0 50 50" style="enable-background:new 0 0 50 50;" xml:space="preserve">
<path d="M49.942,30.683c-0.009-0.026-0.02-0.049-0.031-0.074c-0.038-0.089-0.088-0.172-0.151-0.247
	c-0.013-0.016-0.023-0.033-0.037-0.048c-0.066-0.07-0.14-0.132-0.225-0.181c-0.018-0.01-0.037-0.014-0.056-0.023
	c-0.01-0.005-0.016-0.015-0.026-0.019l-7-3.2c-0.505-0.23-1.097-0.008-1.325,0.493c-0.229,0.503-0.009,1.096,0.493,1.325
	l5.246,2.398L25,43.843L3.17,31.107l5.246-2.398c0.502-0.229,0.723-0.822,0.494-1.325c-0.23-0.502-0.824-0.723-1.326-0.493l-7,3.2
	c-0.01,0.005-0.016,0.014-0.027,0.019c-0.018,0.009-0.038,0.013-0.055,0.023c-0.085,0.049-0.159,0.112-0.225,0.181
	c-0.015,0.015-0.024,0.033-0.038,0.049c-0.062,0.074-0.111,0.156-0.15,0.245c-0.011,0.026-0.023,0.05-0.032,0.077
	C0.023,30.785,0,30.89,0,31v4c0,0.355,0.189,0.685,0.496,0.864l24,14C24.652,49.955,24.826,50,25,50
	c0.174,0,0.349-0.045,0.504-0.136l24-14C49.812,35.685,50,35.355,50,35v-4C50,30.89,49.976,30.784,49.942,30.683z M48,34.426
	L25,47.843L2,34.426v-1.685l22.496,13.123c0.312,0.182,0.697,0.183,1.008,0L48,32.741V34.426z M37.193,7H32c0-3.86-3.141-7-7-7
	c-3.86,0-7,3.14-7,7h-5.193L9.881,33h30.238L37.193,7z M25,2c2.757,0,5,2.243,5,5H20C20,4.243,22.243,2,25,2z M14.594,9H18v1.277
	c-0.595,0.346-1,0.984-1,1.723c0,1.105,0.895,2,2,2c1.105,0,2-0.895,2-2c0-0.739-0.405-1.377-1-1.723V9h10v1.277
	c-0.595,0.346-1,0.984-1,1.723c0,1.105,0.895,2,2,2c1.105,0,2-0.895,2-2c0-0.739-0.405-1.377-1-1.723V9h3.406l2.475,22H12.119
	L14.594,9z"/>
</svg>
