<?xml version="1.0" encoding="utf-8"?>
<!-- Generator: Adobe Illustrator 17.0.2, SVG Export Plug-In . SVG Version: 6.00 Build 0)  -->
<!DOCTYPE svg PUBLIC "-//W3C//DTD SVG 1.0//EN" "http://www.w3.org/TR/2001/REC-SVG-20010904/DTD/svg10.dtd">
<svg version="1.0" id="Layer_1" xmlns="http://www.w3.org/2000/svg" xmlns:xlink="http://www.w3.org/1999/xlink" x="0px" y="0px"
	 width="50px" height="50px" viewBox="0 0 50 50" style="enable-background:new 0 0 50 50;" xml:space="preserve">
<g>
	<path d="M25,1C16.178,1,9,8.178,9,17c0,14.114,14.625,30.949,15.248,31.659C24.438,48.876,24.712,49,25,49
		c0.297,0.015,0.567-0.127,0.758-0.347C26.38,47.931,41,30.812,41,17C41,8.178,33.822,1,25,1z M24.994,46.438
		C21.978,42.761,11,28.583,11,17c0-7.72,6.28-14,14-14s14,6.28,14,14C39,28.338,28.002,42.717,24.994,46.438z"/>
	<path d="M25,11c-3.86,0-7,3.14-7,7s3.14,7,7,7c3.859,0,7-3.14,7-7S28.859,11,25,11z M25,23c-2.757,0-5-2.243-5-5s2.243-5,5-5
		s5,2.243,5,5S27.757,23,25,23z"/>
</g>
</svg>
