<svg xmlns="http://www.w3.org/2000/svg" width="50" height="50" viewBox="0 0 50 50">
    <path d="M 10.40625 0 C 5.14525 0 0.78275 3.926 0.09375 9 L 49.90625 9 C 49.21725 3.926 44.85475 0 39.59375 0 L 10.40625 0 z M 0 11 L 0 39.59375 C 0 45.32975 4.66725 50 10.40625 50 L 39.59375 50 C 45.33275 50 50 45.33075 50 39.59375 L 50 11 L 0 11 z M 18.5625 16 L 25.96875 16 L 23.65625 17.21875 L 21.4375 17.21875 C 22.2665 18.03775 24 19.457 24 22.25 C 24 24.965 22.48475 26.294 20.96875 27.5 C 20.50175 27.98 19.9375 28.5075 19.9375 29.3125 C 19.9375 30.1185 20.50925 30.58225 20.90625 30.90625 L 22.1875 31.9375 C 23.7735 33.2945 25.21875 34.5345 25.21875 37.0625 C 25.21875 40.5135 21.92175 44 15.71875 44 C 10.48775 44 7.96875 41.467 7.96875 38.75 C 7.96875 37.432 8.616 35.56825 10.75 34.28125 C 12.979 32.88625 16.02925 32.70775 17.65625 32.59375 C 17.14925 31.93875 16.5625 31.23675 16.5625 30.09375 C 16.5625 29.47875 16.7535 29.10225 16.9375 28.65625 C 16.5365 28.69125 16.14125 28.71875 15.78125 28.71875 C 11.95825 28.71875 9.78125 25.83375 9.78125 22.96875 C 9.78125 21.27875 10.53675 19.38025 12.09375 18.03125 C 14.14275 16.30025 16.6185 16 18.5625 16 z M 16.28125 17.25 C 15.34425 17.25 14.332 17.72575 13.75 18.46875 C 13.138 19.22975 12.9375 20.20425 12.9375 21.15625 C 12.9375 23.61725 14.37175 27.6875 17.46875 27.6875 C 18.37775 27.6875 19.3565 27.24125 19.9375 26.65625 C 20.7605 25.80825 20.8125 24.654 20.8125 24 C 20.8125 21.35 19.27425 17.25 16.28125 17.25 z M 34 24 L 38 24 L 38 29 L 43 29 L 43 33 L 38 33 L 38 38 L 34 38 L 34 33 L 29 33 L 29 29 L 34 29 L 34 24 z M 18.03125 33.625 C 17.70725 33.625 15.767 33.6705 14.25 34.1875 C 13.454 34.4835 11.15625 35.36375 11.15625 37.96875 C 11.15625 40.57475 13.642 42.46875 17.5 42.46875 C 20.964 42.46875 22.8115 40.774 22.8125 38.5 C 22.8125 36.627 21.614 35.63825 18.875 33.65625 C 18.586 33.62325 18.39525 33.625 18.03125 33.625 z"/>
</svg>
