<svg xmlns="http://www.w3.org/2000/svg" width="50" height="50" viewBox="0 0 50 50">
    <path d="M 10.40625 0 C 4.9709526 0 0.4964508 4.2353298 0.0625 9.5625 A 1.001098 1.001098 0 0 0 0.03125 9.59375 A 1.001098 1.001098 0 0 0 0 10.28125 A 1.001098 1.001098 0 0 0 0 10.3125 C -0.00028250244 10.343855 0 10.374833 0 10.40625 L 0 39.59375 C 0 45.309591 4.6868306 50 10.40625 50 L 39.59375 50 C 45.314064 50 50 45.310486 50 39.59375 L 50 37.9375 L 50 10.40625 C 50 10.343415 50.001128 10.281332 50 10.21875 C 49.999812 10.20832 50.000219 10.197923 50 10.1875 A 1.0001 1.0001 0 0 0 49.96875 9.6875 A 1.0001 1.0001 0 0 0 49.9375 9.59375 C 49.518441 4.2521044 45.039524 0 39.59375 0 L 10.40625 0 z M 10.40625 2 L 39.59375 2 C 43.739669 2 47.197804 5.0433741 47.875 9 L 2.125 9 C 2.8021959 5.0433741 6.260331 2 10.40625 2 z M 2 11 L 48 11 L 48 37.9375 L 48 39.59375 C 48 44.219014 44.223436 48 39.59375 48 L 10.40625 48 C 5.7776694 48 2 44.217909 2 39.59375 L 2 11 z M 18.5625 16 C 16.6185 16 14.14275 16.30125 12.09375 18.03125 C 10.53675 19.38025 9.78125 21.27875 9.78125 22.96875 C 9.78125 25.83275 11.95825 28.71875 15.78125 28.71875 C 16.14125 28.71875 16.5365 28.69125 16.9375 28.65625 C 16.7535 29.10125 16.5625 29.47875 16.5625 30.09375 C 16.5625 31.23675 17.14925 31.9075 17.65625 32.5625 C 16.02925 32.6775 12.979 32.88725 10.75 34.28125 C 8.616 35.56825 7.96875 37.431 7.96875 38.75 C 7.96875 41.467 10.48775 44 15.71875 44 C 21.92175 44 25.21875 40.5135 25.21875 37.0625 C 25.21875 34.5355 23.7735 33.2955 22.1875 31.9375 L 20.90625 30.90625 C 20.50925 30.58225 19.9375 30.1185 19.9375 29.3125 C 19.9375 28.5085 20.50175 27.98 20.96875 27.5 C 22.48475 26.295 24 24.965 24 22.25 C 24 19.457 22.2665 18.03775 21.4375 17.21875 L 23.65625 17.21875 L 25.96875 16 L 18.5625 16 z M 16.28125 17.25 C 19.27425 17.25 20.8125 21.35 20.8125 24 C 20.8125 24.654 20.7605 25.80825 19.9375 26.65625 C 19.3565 27.24125 18.37775 27.6875 17.46875 27.6875 C 14.37175 27.6875 12.9375 23.61725 12.9375 21.15625 C 12.9375 20.20425 13.138 19.22975 13.75 18.46875 C 14.332 17.72575 15.34425 17.25 16.28125 17.25 z M 34 24 L 34 29 L 29 29 L 29 33 L 34 33 L 34 38 L 38 38 L 38 33 L 43 33 L 43 29 L 38 29 L 38 24 L 34 24 z M 18.03125 33.625 C 18.39525 33.625 18.586 33.62125 18.875 33.65625 C 21.614 35.63725 22.8125 36.627 22.8125 38.5 C 22.8115 40.774 20.964 42.46875 17.5 42.46875 C 13.642 42.46875 11.15625 40.57475 11.15625 37.96875 C 11.15625 35.36275 13.454 34.4835 14.25 34.1875 C 15.767 33.6715 17.70725 33.625 18.03125 33.625 z" fill-rule="evenodd"/>
</svg>
