<svg xmlns="http://www.w3.org/2000/svg" width="50" height="50" viewBox="0 0 50 50">
    <path d="M39.593,0H10.407C4.668,0,0,4.667,0,10.404v29.192C0,45.333,4.668,50,10.407,50h29.185C45.331,50,50,45.333,50,39.596 V10.404C50,4.667,45.331,0,39.593,0z M40.466,34.921l-4.542,0.062c0,0-0.979,0.188-2.262-0.676c-1.699-1.14-3.299-4.104-4.549-3.721 c-1.049,0.321-1.271,1.53-1.271,2.771c0,0.444-0.318,0.644-1.162,0.644c-0.843,0-1.659,0-2.033,0c-2.744,0-5.466-0.125-8.437-3.303 c-4.202-4.494-8.113-12.879-8.113-12.879s-0.218-0.456,0.019-0.733c0.269-0.311,0.999-0.272,0.999-0.272l4.859-0.002 c0,0,0.457,0.089,0.786,0.325c0.271,0.194,0.422,0.565,0.422,0.565s0.786,1.949,1.826,3.709c2.031,3.435,2.975,4.188,3.664,3.819 c1.006-0.536,0.704-4.854,0.704-4.854s0.019-1.568-0.506-2.266c-0.405-0.541-1.17-0.699-1.508-0.743 c-0.274-0.036,0.174-0.657,0.756-0.937c0.875-0.419,2.419-0.442,4.245-0.424c1.421,0.014,1.831,0.101,2.386,0.232 c1.676,0.396,1.106,1.926,1.106,5.595c0,1.175-0.217,2.828,0.649,3.376c0.373,0.236,1.284,0.035,3.56-3.751 c1.082-1.795,1.89-3.905,1.89-3.905s0.178-0.328,0.453-0.489c0.282-0.165,0.272-0.162,0.659-0.162c0.388,0,4.265-0.031,5.115-0.031 s1.647-0.01,1.785,0.5c0.197,0.733-0.574,2.377-2.664,5.104c-3.432,4.476-3.813,4.058-0.965,6.646 c2.721,2.473,3.285,3.676,3.377,3.826C42.843,34.777,40.466,34.921,40.466,34.921z"/>
</svg>
