<svg xmlns="http://www.w3.org/2000/svg" width="50" height="50" viewBox="0 0 50 50">
    <path style="text-indent:0;text-align:start;line-height:normal;text-transform:none;block-progression:tb;-inkscape-font-specification:Bitstream Vera Sans" d="M 10.40625 0 C 4.6868306 0 0 4.6895142 0 10.40625 L 0 39.59375 C 0 45.310486 4.6868306 50 10.40625 50 L 39.59375 50 C 45.314064 50 50 45.310486 50 39.59375 L 50 10.40625 C 50 4.6895142 45.313169 0 39.59375 0 L 10.40625 0 z M 10.40625 2 L 39.59375 2 C 44.222331 2 48 5.7809858 48 10.40625 L 48 39.59375 C 48 44.219014 44.223436 48 39.59375 48 L 10.40625 48 C 5.7776694 48 2 44.219014 2 39.59375 L 2 10.40625 C 2 5.7809858 5.7776694 2 10.40625 2 z M 23.03125 15 C 21.753079 15.003719 20.644082 15.073188 19.6875 15.53125 C 19.226565 15.753006 18.884839 16.038763 18.625 16.375 C 18.495081 16.543118 18.380422 16.6967 18.3125 17.0625 C 18.27854 17.2454 18.24817 17.534405 18.4375 17.84375 C 18.626829 18.153095 18.98297 18.312772 19.21875 18.34375 C 19.444402 18.37313 19.963571 18.5866 20.0625 18.71875 C 20.10529 18.77565 20.261034 19.219822 20.3125 19.625 C 20.36397 20.030178 20.375 20.375 20.375 20.375 A 1.0001 1.0001 0 0 0 20.375 20.4375 C 20.375 20.4375 20.45338 21.487208 20.40625 22.5625 C 20.38268 23.100146 20.30703 23.656645 20.21875 24.03125 C 20.18379 24.179608 20.25363 24.09278 20.21875 24.15625 C 20.15656 24.11152 20.16342 24.13138 20.0625 24.03125 C 19.61446 23.58671 18.872247 22.592879 17.875 20.90625 C 16.88723 19.234639 16.125 17.3125 16.125 17.3125 A 1.0001 1.0001 0 0 0 16.09375 17.3125 C 16.09375 17.3125 15.962453 16.755409 15.34375 16.3125 C 14.755122 15.890262 14.15625 15.84375 14.15625 15.84375 A 1.0001 1.0001 0 0 0 13.96875 15.8125 L 9.15625 15.8125 L 9.125 15.8125 C 9.097756 15.811 8.8953101 15.8031 8.59375 15.84375 C 8.2745089 15.88677 7.8158282 15.92784 7.375 16.4375 A 1.0001 1.0001 0 0 0 7.34375 16.4375 C 6.9505611 16.89705 6.9808632 17.417695 7.03125 17.71875 C 7.0816368 18.019805 7.1875 18.25 7.1875 18.25 C 7.1875 18.25 11.054351 26.653841 15.46875 31.375 C 18.638905 34.76603 21.881881 35 24.65625 35 L 26.6875 35 C 27.187687 35 27.604106 34.97967 28.0625 34.71875 C 28.520894 34.457828 28.84375 33.805201 28.84375 33.34375 C 28.84375 32.783148 28.91639 32.274732 29.03125 31.96875 C 29.13639 31.688659 29.208033 31.622767 29.375 31.5625 C 29.399218 31.575241 29.438715 31.592749 29.53125 31.65625 C 29.760384 31.813491 30.101855 32.163563 30.46875 32.5625 C 31.202541 33.360374 32.031767 34.412427 33.09375 35.125 C 33.861188 35.641407 34.586581 35.887655 35.125 35.96875 C 35.562466 36.03464 35.811018 35.98473 35.9375 35.96875 L 36.125 35.96875 L 40.46875 35.90625 A 1.0001 1.0001 0 0 0 40.53125 35.90625 C 40.53125 35.90625 41.283389 35.905587 42.03125 35.46875 C 42.405181 35.250332 42.825804 34.852879 42.96875 34.25 C 43.111696 33.647121 42.92989 33.033534 42.5625 32.4375 C 42.61246 32.51896 42.50162 32.295253 42.375 32.09375 C 42.248378 31.892247 42.079318 31.621642 41.8125 31.28125 C 41.278865 30.600466 40.394217 29.64261 39 28.375 C 38.286297 27.726453 37.80931 27.273428 37.59375 27 C 37.37819 26.726572 37.416802 26.814522 37.4375 26.71875 C 37.4789 26.527205 38.357731 25.357858 40.09375 23.09375 C 41.161081 21.700447 41.900266 20.557336 42.375 19.625 C 42.849734 18.692664 43.169618 17.988668 42.9375 17.125 C 42.8394 16.762441 42.582952 16.428229 42.3125 16.25 C 42.042048 16.071771 41.771604 15.983113 41.53125 15.9375 C 41.050541 15.84627 40.608578 15.875 40.1875 15.875 C 39.312215 15.875 35.396098 15.90625 35.0625 15.90625 C 34.680668 15.90625 34.184806 16.024515 33.90625 16.1875 C 33.282577 16.552632 33.0625 17.0625 33.0625 17.0625 A 1.0001 1.0001 0 0 0 33.03125 17.1875 C 33.03125 17.1875 32.23469 19.250533 31.21875 20.9375 C 30.12665 22.754147 29.354911 23.653494 28.9375 24.03125 C 28.89691 23.923565 28.86646 23.920601 28.84375 23.65625 C 28.80011 23.148228 28.84375 22.49281 28.84375 21.84375 C 28.84375 20.060944 29.018222 18.78779 28.9375 17.71875 C 28.89714 17.18423 28.777834 16.666154 28.4375 16.1875 C 28.097166 15.708846 27.540315 15.385048 26.96875 15.25 C 26.402926 15.116445 25.834916 15.014383 24.375 15 C 23.915012 14.995465 23.457307 14.99876 23.03125 15 z M 24.34375 17 C 25.725834 17.01362 25.987074 17.09031 26.53125 17.21875 C 26.797685 17.2817 26.788146 17.3095 26.8125 17.34375 C 26.83685 17.378 26.91061 17.518895 26.9375 17.875 C 26.99128 18.58721 26.84375 19.957556 26.84375 21.84375 C 26.84375 22.36969 26.81064 23.094522 26.875 23.84375 C 26.93936 24.592978 27.119936 25.525375 27.96875 26.0625 C 28.271625 26.254131 28.757886 26.321688 29.15625 26.21875 C 29.554614 26.115812 29.865935 25.90561 30.21875 25.59375 C 30.92438 24.970031 31.773171 23.905547 32.9375 21.96875 L 32.90625 21.96875 C 34.016834 20.124626 34.763755 18.158606 34.8125 18.03125 L 34.84375 18.03125 C 34.84375 18.03125 34.884342 17.967072 34.90625 17.9375 C 34.961143 17.905382 34.961297 17.887842 34.96875 17.875 C 34.975608 17.875879 34.998956 17.870697 35 17.875 C 35.023075 17.877519 35.021021 17.90625 35.0625 17.90625 C 35.502902 17.90625 39.360785 17.875 40.1875 17.875 C 40.505847 17.875 40.709976 17.89064 40.90625 17.90625 C 40.87862 18.020302 40.88043 18.15573 40.59375 18.71875 C 40.209484 19.473414 39.521669 20.541303 38.5 21.875 C 36.804019 24.086892 35.795103 24.915795 35.5 26.28125 C 35.352448 26.963978 35.624498 27.734053 36.03125 28.25 C 36.438002 28.765947 36.945953 29.229547 37.65625 29.875 C 38.982033 31.08039 39.766885 31.954784 40.21875 32.53125 C 40.444682 32.819483 40.597309 33.012722 40.6875 33.15625 C 40.77769 33.299778 40.77904 33.312293 40.875 33.46875 C 41.048015 33.74944 40.997313 33.775157 41 33.75 C 40.848954 33.83823 40.476457 33.930928 40.4375 33.9375 L 40.4375 33.90625 L 35.90625 33.96875 A 1.0001 1.0001 0 0 0 35.75 34 C 35.75 34 35.70908 34.0097 35.4375 33.96875 C 35.165919 33.92784 34.735312 33.816343 34.21875 33.46875 C 33.581733 33.041323 32.772209 32.061126 31.96875 31.1875 C 31.56702 30.750687 31.163022 30.357572 30.6875 30.03125 C 30.211978 29.704928 29.52756 29.405334 28.8125 29.625 C 27.971347 29.882643 27.414891 30.592232 27.15625 31.28125 C 26.94474 31.844711 26.924886 32.404276 26.90625 32.96875 C 26.84145 32.980785 26.873022 33 26.6875 33 L 24.65625 33 C 21.942619 33 19.709345 32.96497 16.9375 30 C 13.121622 25.918954 9.540484 18.485624 9.21875 17.8125 L 13.875 17.8125 C 13.958036 17.840636 14.09052 17.899906 14.15625 17.9375 C 14.156787 17.956411 14.224035 18.030963 14.25 18.0625 C 14.25 18.0625 14.249932 18.09358 14.25 18.09375 C 14.26035 18.11953 15.071147 20.069922 16.15625 21.90625 C 17.190003 23.654621 17.92104 24.77029 18.625 25.46875 C 18.97698 25.81798 19.341673 26.072224 19.78125 26.21875 C 20.220827 26.365276 20.775442 26.328945 21.15625 26.125 C 21.917828 25.719229 22.049463 25.05452 22.1875 24.46875 C 22.325537 23.88298 22.379565 23.265104 22.40625 22.65625 C 22.4582 21.471008 22.37901 20.432516 22.375 20.375 C 22.375 20.375 22.374971 20.31595 22.375 20.3125 C 22.37543 20.26055 22.3784 19.893874 22.3125 19.375 C 22.24222 18.821678 22.138457 18.141105 21.65625 17.5 C 21.56554 17.378827 21.442637 17.377203 21.34375 17.28125 C 22.036505 17.137966 22.905724 16.985824 24.34375 17 z" color="#000" overflow="visible" enable-background="accumulate" font-family="Bitstream Vera Sans"/>
</svg>
