<?xml version="1.0" encoding="utf-8"?>
<!-- Generator: Adobe Illustrator 17.0.2, SVG Export Plug-In . SVG Version: 6.00 Build 0)  -->
<!DOCTYPE svg PUBLIC "-//W3C//DTD SVG 1.0//EN" "http://www.w3.org/TR/2001/REC-SVG-20010904/DTD/svg10.dtd">
<svg version="1.0" id="Layer_1" xmlns="http://www.w3.org/2000/svg" xmlns:xlink="http://www.w3.org/1999/xlink" x="0px" y="0px"
	 width="50px" height="50px" viewBox="0 0 50 50" style="enable-background:new 0 0 50 50;" xml:space="preserve">
<g>
	<path d="M26.2,20.1h-2.3c-0.3,0-0.4,0.2-0.4,0.4v13.4c0,0.3,0.2,0.4,0.4,0.4v0.1h2.3c0.3,0,0.4-0.2,0.4-0.4V20.5
		C26.6,20.2,26.4,20.1,26.2,20.1z"/>
	<path d="M23.8,16.2h2.4c0.3,0,0.4-0.2,0.4-0.4v-2.6c0-0.3-0.2-0.4-0.4-0.4h-2.4c-0.3,0-0.4,0.2-0.4,0.4v2.6
		C23.4,16.1,23.6,16.2,23.8,16.2z"/>
	<path d="M25,1C11.215,1,0,10.959,0,23.2c0,5.915,2.573,11.443,7.262,15.635c-0.866,2.561-3.089,4.32-4.744,5.63
		c-1.516,1.199-2.611,2.066-2.284,3.293l0.107,0.401l0.36,0.208c0.907,0.521,2.121,0.785,3.609,0.785
		c4.946,0,12.062-2.841,15.195-4.206c1.781,0.372,3.55,0.554,5.395,0.554c13.786,0,25-9.959,25-22.2C49.9,11.003,38.73,1,25,1z
		 M24.9,43.5c-1.809,0-3.537-0.188-5.283-0.576l-0.32-0.07l-0.3,0.132c-2.216,0.978-9.823,4.167-14.686,4.167
		c-0.653,0-1.222-0.058-1.701-0.173c0.33-0.298,0.78-0.654,1.149-0.946c1.889-1.495,4.744-3.754,5.612-7.295l0.147-0.601l-0.472-0.4
		C4.502,33.885,2,28.722,2,23.2C2,12.062,12.318,3,25,3c12.627,0,22.9,9.106,22.9,20.3C47.9,34.438,37.582,43.5,24.9,43.5z"/>
</g>
</svg>
