<svg xmlns="http://www.w3.org/2000/svg" viewBox="0 0 50 50" enable-background="new 0 0 50 50">
    <path style="text-indent:0;text-align:start;line-height:normal;text-transform:none;block-progression:tb;-inkscape-font-specification:Bitstream Vera Sans" d="M 15 7 C 7.8545455 7 2 12.854545 2 20 C 2 34.761905 18.694043 42.047119 24.375 46.78125 A 1.0001 1.0001 0 0 0 25.625 46.78125 C 31.305957 42.047119 48 34.761905 48 20 C 48 12.854545 42.145455 7 35 7 C 32.74127 7 30.680697 7.5587485 28.84375 8.53125 A 1.0001 1.0001 0 0 0 28.3125 9.1875 L 27.03125 14.78125 A 1.0001 1.0001 0 0 0 28 16 L 30.21875 16 L 27.15625 23.625 A 1.0001 1.0001 0 0 0 28.09375 25 L 28.90625 25 L 24.75 31.71875 L 25.96875 26.21875 A 1.0001 1.0001 0 0 0 25 25 L 23.09375 25 L 25.75 17.3125 A 1.0001 1.0001 0 0 0 24.8125 16 L 21.8125 16 L 22.875 10.375 A 1.0001 1.0001 0 0 0 22.5 9.40625 C 20.422705 7.8756113 17.805128 7 15 7 z M 15 9 C 17.173868 9 19.14138 9.6574963 20.78125 10.71875 L 19.625 16.8125 A 1.0001 1.0001 0 0 0 20.59375 18 L 23.40625 18 L 20.75 25.6875 A 1.0001 1.0001 0 0 0 21.6875 27 L 23.75 27 L 21.53125 36.96875 A 1.0001 1.0001 0 0 0 23.34375 37.71875 L 31.5625 24.53125 A 1.0001 1.0001 0 0 0 30.6875 23 L 29.59375 23 L 32.625 15.375 A 1.0001 1.0001 0 0 0 31.6875 14 L 29.25 14 L 30.15625 10.125 C 31.622784 9.4142728 33.207975 9 35 9 C 41.054545 9 46 13.945455 46 20 C 46 32.896733 31.592632 39.574446 25 44.78125 C 18.407368 39.574446 4 32.896733 4 20 C 4 13.945455 8.9454545 9 15 9 z" color="#000" stroke-width="2" overflow="visible" enable-background="accumulate" font-family="Bitstream Vera Sans"/>
</svg>
