<?xml version="1.0" encoding="utf-8"?>
<!-- Generator: Adobe Illustrator 17.0.2, SVG Export Plug-In . SVG Version: 6.00 Build 0)  -->
<!DOCTYPE svg PUBLIC "-//W3C//DTD SVG 1.0//EN" "http://www.w3.org/TR/2001/REC-SVG-20010904/DTD/svg10.dtd">
<svg version="1.0" id="Layer_1" xmlns="http://www.w3.org/2000/svg" xmlns:xlink="http://www.w3.org/1999/xlink" x="0px" y="0px"
	 width="50px" height="44px" viewBox="0 0 50 44" style="enable-background:new 0 0 50 44;" xml:space="preserve">
<g>
	<path d="M47,12H3c-2.996,0-3,3-3,3v26c0,1.654,1.346,3,3,3h44c1.654,0,3-1.346,3-3V15C50,15,49.957,12,47,12z"/>
	<path d="M47,4L18.044,4.006c-0.279-0.101-0.854-1.02-1.164-1.514C16.111,1.267,15.317,0,14,0H3C1.346,0,0,1.346,0,3v10
		c0-1.654,1.346-3,3-3h44c1.654,0,3,1.346,3,3V7C50,5.346,48.654,4,47,4z"/>
</g>
</svg>
