<?xml version="1.0" encoding="utf-8"?>
<!-- Generator: Adobe Illustrator 17.0.2, SVG Export Plug-In . SVG Version: 6.00 Build 0)  -->
<!DOCTYPE svg PUBLIC "-//W3C//DTD SVG 1.0//EN" "http://www.w3.org/TR/2001/REC-SVG-20010904/DTD/svg10.dtd">
<svg version="1.0" id="Layer_1" xmlns="http://www.w3.org/2000/svg" xmlns:xlink="http://www.w3.org/1999/xlink" x="0px" y="0px"
	 width="50px" height="50px" viewBox="0 0 50 50" style="enable-background:new 0 0 50 50;" xml:space="preserve">
<path d="M47,7L18.044,7.006c-0.279-0.101-0.855-1.02-1.165-1.513C16.112,4.267,15.317,3,14,3H3C1.346,3,0,4.346,0,6v38
	c0,1.654,1.346,3,3,3h44c1.654,0,3-1.346,3-3V10C50,8.346,48.654,7,47,7z M48,44c0,0.552-0.448,1-1,1H3c-0.551,0-1-0.448-1-1V16
	c0-0.551,0.449-1,1-1h44c0.552,0,1,0.449,1,1V44z M48,13.171C47.688,13.061,47.351,13,47,13H3c-0.351,0-0.687,0.061-1,0.171V6
	c0-0.551,0.449-1,1-1l10.972-0.003c0.293,0.09,0.891,1.044,1.213,1.558C15.939,7.757,16.718,9,18,9h29c0.552,0,1,0.449,1,1V13.171z"
	/>
</svg>
