<?xml version="1.0" encoding="utf-8"?>
<!-- Generator: Adobe Illustrator 17.0.2, SVG Export Plug-In . SVG Version: 6.00 Build 0)  -->
<!DOCTYPE svg PUBLIC "-//W3C//DTD SVG 1.0//EN" "http://www.w3.org/TR/2001/REC-SVG-20010904/DTD/svg10.dtd">
<svg version="1.0" id="Layer_1" xmlns="http://www.w3.org/2000/svg" xmlns:xlink="http://www.w3.org/1999/xlink" x="0px" y="0px"
	 width="48px" height="48px" viewBox="0 0 48 48" style="enable-background:new 0 0 50 50;" xml:space="preserve">
<g>
	<path d="M31,13c0,0.76-0.225,1.464-0.594,2.07c0.973,0.699,1.825,1.552,2.525,2.525C33.536,17.225,34.24,17,35,17h10.912v0H46
		c0.026,0,0.048,0.005,0.074,0.006c0.616-1.636,2.493-7.853-2.367-12.713c-4.857-4.858-11.069-2.986-12.71-2.368
		C30.998,1.949,31,1.977,31,2v1.992h0L31,13L31,13z M42.293,5.707c2.861,2.861,2.909,6.257,2.506,8.484
		c-2.276-4.817-6.173-8.714-10.99-10.99C36.037,2.798,39.433,2.846,42.293,5.707z"/>
	<path d="M17,2.088L17,2.088L17,2c0-0.023,0.002-0.051,0.003-0.075c-1.641-0.617-7.854-2.487-12.71,2.368
		c-4.86,4.86-2.983,11.077-2.367,12.713C1.952,17.005,1.974,17,2,17h0.088h1.905H13c0.76,0,1.464,0.225,2.07,0.594
		c0.699-0.973,1.552-1.825,2.525-2.525C17.225,14.464,17,13.76,17,13V2.088z M3.201,14.191c-0.403-2.228-0.355-5.624,2.506-8.484
		c2.861-2.862,6.258-2.91,8.485-2.507C9.375,5.476,5.478,9.374,3.201,14.191z"/>
	<path d="M33,27c0,1.103,0.897,2,2,2h11c1.856,0,2-3.827,2-5c0-1.173-0.144-5-2-5H35c-1.103,0-2,0.897-2,2
		c0,0.124,0.027,0.257,0.072,0.373c0.003,0.009,0.341,0.894,0.341,2.627c0,1.732-0.337,2.618-0.337,2.618
		C33.026,26.739,33,26.869,33,27z"/>
	<path d="M15,21c0-1.103-0.897-2-2-2H2c-1.856,0-2,3.827-2,5c0,1.173,0.144,5,2,5h11c1.103,0,2-0.897,2-2
		c0-0.124-0.027-0.257-0.072-0.373c-0.003-0.009-0.341-0.894-0.341-2.627c0-1.732,0.337-2.618,0.337-2.618
		C14.974,21.261,15,21.131,15,21z"/>
	<path d="M24,0c-1.173,0-5,0.145-5,2v11c0,1.103,0.897,2,2,2c0.125,0,0.257-0.027,0.373-0.072c0.009-0.003,0.895-0.341,2.627-0.341
		c1.708,0,2.593,0.328,2.626,0.341C26.745,14.976,26.872,15,27,15c1.103,0,2-0.897,2-2V2C29,0.145,25.173,0,24,0z"/>
	<path d="M27,33c-0.125,0-0.257,0.027-0.373,0.072c-0.009,0.003-0.895,0.341-2.627,0.341s-2.618-0.337-2.618-0.337
		C21.261,33.025,21.131,33,21,33c-1.103,0-2,0.897-2,2v11c0,1.855,3.827,2,5,2c1.173,0,5-0.145,5-2V35C29,33.897,28.103,33,27,33z"
		/>
	<path d="M46,31L46,31h-1.993v0H35v0c-0.76,0-1.464-0.225-2.07-0.594c-0.699,0.973-1.552,1.825-2.525,2.525
		C30.775,33.536,31,34.24,31,35v9.007v1.905V46c0,0.024-0.002,0.052-0.003,0.076c0.787,0.295,2.605,0.871,4.816,0.871
		c2.437,0,5.353-0.699,7.894-3.24c4.86-4.86,2.983-11.077,2.367-12.713C46.048,30.995,46.026,31,46,31z M42.293,42.293
		c-2.861,2.861-6.257,2.909-8.484,2.506c4.817-2.276,8.714-6.173,10.99-10.99C45.202,36.037,45.154,39.432,42.293,42.293z"/>
	<path d="M17,44.007V35c0-0.76,0.225-1.464,0.594-2.07c-0.973-0.699-1.825-1.552-2.525-2.525C14.464,30.775,13.76,31,13,31H3.994
		H2.088H2c-0.026,0-0.048-0.005-0.074-0.006C1.31,32.63-0.567,38.847,4.293,43.707c2.542,2.542,5.457,3.24,7.894,3.24
		c2.211,0,4.029-0.575,4.816-0.871C17.002,46.052,17,46.024,17,46h0v-0.088V44.007z M5.707,42.293
		c-2.861-2.861-2.909-6.257-2.506-8.484c2.276,4.817,6.173,8.714,10.99,10.99C11.963,45.202,8.567,45.153,5.707,42.293z"/>
</g>
</svg>
