<?xml version="1.0" encoding="utf-8"?>
<!-- Generator: Adobe Illustrator 17.0.2, SVG Export Plug-In . SVG Version: 6.00 Build 0)  -->
<!DOCTYPE svg PUBLIC "-//W3C//DTD SVG 1.0//EN" "http://www.w3.org/TR/2001/REC-SVG-20010904/DTD/svg10.dtd">
<svg version="1.0" id="Layer_1" xmlns="http://www.w3.org/2000/svg" xmlns:xlink="http://www.w3.org/1999/xlink" x="0px" y="0px"
	 width="50px" height="50px" viewBox="0 0 50 50" style="enable-background:new 0 0 50 50;" xml:space="preserve">
<path d="M47.476,29.905C48.882,29.31,49,26.063,49,25c0-1.064-0.118-4.311-1.525-4.906c-0.137-0.632-0.3-1.254-0.486-1.865
	c0.49-1.211,2.826-7.829-2.281-12.937C39.603,0.188,32.985,2.52,31.772,3.011c-0.611-0.187-1.234-0.35-1.867-0.487
	C29.31,1.119,26.063,1,25,1s-4.309,0.119-4.905,1.524c-0.631,0.137-1.251,0.3-1.862,0.489c-1.204-0.487-7.828-2.831-12.939,2.28
	c-5.112,5.112-2.768,11.735-2.28,12.939c-0.188,0.611-0.352,1.232-0.489,1.863C1.119,20.691,1,23.937,1,25s0.119,4.31,1.524,4.905
	c0.138,0.631,0.301,1.251,0.489,1.861c-0.487,1.2-2.834,7.827,2.28,12.94c5.113,5.112,11.74,2.766,12.94,2.279
	c0.61,0.188,1.231,0.353,1.861,0.489C20.691,48.882,23.937,49,25,49s4.307-0.118,4.905-1.522c0.631-0.138,1.253-0.302,1.864-0.49
	c1.206,0.488,7.827,2.828,12.938-2.28c5.111-5.111,2.768-11.736,2.28-12.939C47.176,31.157,47.339,30.536,47.476,29.905z
	 M43.293,6.707c2.848,2.848,2.909,6.228,2.513,8.456c-2.266-4.816-6.135-8.688-10.943-10.957C37.099,3.82,40.479,3.893,43.293,6.707
	z M30,4.598C37.619,6.451,43.544,12.37,45.401,20h-8.396c-1.323-3.179-3.834-5.685-7.005-7.004V4.598z M22,13.897
	c0.033-0.143,0.034-0.294,0-0.444v-9.66c0.065-0.129,0.103-0.273,0.107-0.423C22.636,3.196,23.703,3,25,3
	c1.392,0,2.518,0.226,3,0.407v9.989c-0.053,0.185-0.05,0.374,0,0.547v0.005c-0.507-0.146-1.506-0.361-3-0.361s-2.493,0.214-3,0.361
	V13.897z M20,4.599v8.398c-3.169,1.318-5.68,3.825-7.002,7.003h-8.4C6.451,12.433,12.436,6.449,20,4.599z M6.707,6.707
	c2.106-2.106,4.503-2.688,6.51-2.688c0.716,0,1.382,0.074,1.968,0.18C10.387,6.473,6.49,10.364,4.209,15.161
	C3.821,12.925,3.883,9.531,6.707,6.707z M3,25c0-1.357,0.215-2.461,0.393-2.962c0.081-0.003,0.16-0.016,0.236-0.038h10.319
	c-0.146,0.507-0.361,1.506-0.361,3c0,1.401,0.189,2.367,0.333,2.9c-0.192-0.058-0.404-0.058-0.607,0.011
	c-0.068,0.023-0.132,0.054-0.192,0.089H3.406C3.226,27.519,3,26.393,3,25z M6.707,43.293c-2.859-2.859-2.91-6.255-2.508-8.482
	c2.281,4.805,6.189,8.71,10.991,10.99C12.96,46.202,9.566,46.151,6.707,43.293z M20,45.401C12.453,43.552,6.449,37.559,4.599,30
	h8.398c1.314,3.145,3.855,5.688,7.003,7.003V45.401z M28,36.054c-0.051,0.176-0.054,0.367,0,0.555v9.754
	c-0.023,0.079-0.037,0.161-0.04,0.246C27.457,46.786,26.354,47,25,47c-1.329,0-2.416-0.206-2.931-0.382
	c-0.003-0.117-0.028-0.229-0.069-0.335v-9.541c0.01-0.022,0.019-0.046,0.027-0.07c0.07-0.204,0.071-0.415,0.014-0.607
	c0.52,0.146,1.504,0.349,2.958,0.349C26.494,36.413,27.493,36.198,28,36.054L28,36.054z M29.701,34.949
	C29.348,34.38,28.718,34,28,34c-0.124,0-0.257,0.027-0.373,0.072c-0.009,0.003-0.894,0.341-2.627,0.341
	c-1.732,0-2.618-0.337-2.618-0.337C22.261,34.025,22.131,34,22,34c-0.717,0-1.347,0.379-1.7,0.947
	c-2.292-1.088-4.161-2.957-5.248-5.247C15.621,29.347,16,28.717,16,28c0-0.124-0.027-0.257-0.072-0.373
	c-0.003-0.009-0.341-0.894-0.341-2.627c0-1.733,0.337-2.618,0.337-2.618C15.974,22.261,16,22.131,16,22
	c0-0.717-0.379-1.347-0.948-1.7c1.09-2.311,2.941-4.161,5.247-5.248C20.652,15.621,21.283,16,22,16c0.125,0,0.257-0.027,0.373-0.072
	c0.009-0.003,0.895-0.341,2.627-0.341c1.732,0,2.618,0.337,2.618,0.337C27.739,15.974,27.869,16,28,16
	c0.718,0,1.349-0.38,1.701-0.949c2.307,1.087,4.158,2.937,5.248,5.248C34.38,20.651,34,21.282,34,22
	c0,0.125,0.027,0.257,0.072,0.373c0.003,0.009,0.341,0.895,0.341,2.627c0,1.732-0.338,2.618-0.337,2.618
	C34.025,27.739,34,27.869,34,28c0,0.717,0.379,1.348,0.948,1.7C33.856,32.012,32.004,33.861,29.701,34.949z M30,45.402v-8.398
	c3.166-1.318,5.679-3.826,7.003-7.004h8.398C43.551,37.565,37.569,43.551,30,45.402z M43.293,43.293
	c-2.856,2.856-6.249,2.909-8.476,2.509c4.807-2.278,8.706-6.18,10.984-10.985C46.202,37.045,46.149,40.437,43.293,43.293z
	 M46.196,28H36.053c0.146-0.507,0.36-1.506,0.36-3s-0.215-2.493-0.36-3h10.541C46.774,22.482,47,23.608,47,25
	c0,1.293-0.194,2.355-0.367,2.887C46.478,27.891,46.328,27.931,46.196,28z"/>
</svg>
