<svg xmlns="http://www.w3.org/2000/svg" width="50" height="50" viewBox="0 0 50 50">
    <path d="M 25 0.0625 C 24.73375 0.0625 24.47025 0.178 24.28125 0.375 L 0.375 25.25 C -0.007 25.648 0.00825 26.27325 0.40625 26.65625 C 0.80425 27.03825 1.45975 27.024 1.84375 26.625 L 5 23.34375 L 5 50 L 18 50 L 18 27 L 32 27 L 32 50 L 45 50 L 45 23.34375 L 48.15625 26.625 C 48.35225 26.829 48.612 26.9375 48.875 26.9375 C 49.124 26.9365 49.40075 26.84225 49.59375 26.65625 C 49.99175 26.27325 50.007 25.649 49.625 25.25 L 25.71875 0.375 C 25.52975 0.178 25.26625 0.0625 25 0.0625 z M 35 5 L 35 8.03125 L 41 14.28125 L 41 5 L 35 5 z M 20 29 L 20 50 L 30 50 L 30 29 L 20 29 z"/>
</svg>
