<svg xmlns="http://www.w3.org/2000/svg" viewBox="0 0 50 50" enable-background="new 0 0 50 50">
    <path style="text-indent:0;text-align:start;line-height:normal;text-transform:none;block-progression:tb;-inkscape-font-specification:Bitstream Vera Sans" d="M 25 3 C 18.364481 3 13 8.3644809 13 15 L 13 20 L 9 20 C 7.3 20 6 21.3 6 23 L 6 47 C 6 48.7 7.3 50 9 50 L 41 50 C 42.7 50 44 48.7 44 47 L 44 23 C 44 21.3 42.7 20 41 20 L 37 20 L 37 15 C 37 8.3644809 31.635519 3 25 3 z M 25 5 C 30.564481 5 35 9.4355191 35 15 L 35 20 L 15 20 L 15 15 C 15 9.4355191 19.435519 5 25 5 z M 25 30 C 26.7 30 28 31.3 28 33 C 28 33.9 27.6 34.6875 27 35.1875 L 27 38 C 27 39.1 26.1 40 25 40 C 23.9 40 23 39.1 23 38 L 23 35.1875 C 22.4 34.6875 22 33.9 22 33 C 22 31.3 23.3 30 25 30 z" color="#000" overflow="visible" enable-background="accumulate" font-family="Bitstream Vera Sans"/>
</svg>
