<?xml version="1.0" encoding="utf-8"?>
<!-- Generator: Adobe Illustrator 17.0.2, SVG Export Plug-In . SVG Version: 6.00 Build 0)  -->
<!DOCTYPE svg PUBLIC "-//W3C//DTD SVG 1.0//EN" "http://www.w3.org/TR/2001/REC-SVG-20010904/DTD/svg10.dtd">
<svg version="1.0" id="Layer_1" xmlns="http://www.w3.org/2000/svg" xmlns:xlink="http://www.w3.org/1999/xlink" x="0px" y="0px"
	 width="50px" height="50.003px" viewBox="0 0 50 50.003" style="enable-background:new 0 0 50 50.003;" xml:space="preserve">
<g>
	<path d="M25,16.001c-4.962,0-9,4.038-9,9c0,4.963,4.038,9,9,9c4.963,0,9-4.037,9-9C34,20.039,29.963,16.001,25,16.001z M25,32.001
		c-3.86,0-7-3.141-7-7c0-3.86,3.14-7,7-7c3.859,0,7,3.14,7,7C32,28.86,28.859,32.001,25,32.001z"/>
	<path d="M50,28.795v-7.689l-7.343-1.2c-0.384-1.326-0.911-2.6-1.576-3.802l4.278-6.098L39.923,4.57l-6.021,4.328
		c-1.214-0.676-2.498-1.209-3.83-1.593L28.792,0h-7.69l-1.188,7.282c-1.341,0.38-2.627,0.909-3.836,1.576l-6.005-4.291l-5.436,5.433
		l4.222,6.039c-0.679,1.22-1.217,2.514-1.605,3.861L0,21.108v7.685l7.243,1.284c0.385,1.344,0.923,2.638,1.604,3.86l-4.28,5.987
		L10,45.362l6.048-4.234c1.218,0.674,2.506,1.206,3.844,1.588l1.213,7.287h7.685l1.297-7.307c1.339-0.39,2.622-0.927,3.827-1.602
		l6.085,4.27l5.438-5.44l-4.347-6.036c0.665-1.202,1.19-2.478,1.57-3.804L50,28.795z M42.819,39.713l-3.047,3.05l-5.77-4.049
		l-0.559,0.34c-1.382,0.841-2.888,1.472-4.478,1.876l-0.626,0.158l-1.227,6.915h-4.315l-1.149-6.9l-0.639-0.157
		c-1.586-0.392-3.101-1.018-4.501-1.859l-0.557-0.334l-5.726,4.009L7.179,39.71l4.054-5.67l-0.341-0.563
		c-0.851-1.405-1.482-2.924-1.877-4.514l-0.157-0.63L2,27.117v-4.315l6.863-1.143l0.159-0.636c0.399-1.596,1.031-3.116,1.878-4.518
		l0.336-0.557l-3.999-5.72l3.051-3.049l5.684,4.061l0.562-0.338c1.39-0.835,2.903-1.457,4.5-1.849l0.642-0.158L22.802,2h4.31
		l1.212,6.919l0.632,0.157c1.58,0.394,3.089,1.021,4.486,1.867l0.564,0.342l5.703-4.1l3.048,3.046l-4.054,5.776l0.335,0.557
		c0.832,1.384,1.455,2.887,1.851,4.465l0.159,0.638L48,22.805v4.311l-6.954,1.222l-0.157,0.631c-0.392,1.578-1.013,3.08-1.845,4.466
		l-0.339,0.564L42.819,39.713z"/>
</g>
</svg>
