<?xml version="1.0" encoding="utf-8"?>
<!-- Generator: Adobe Illustrator 17.0.2, SVG Export Plug-In . SVG Version: 6.00 Build 0)  -->
<!DOCTYPE svg PUBLIC "-//W3C//DTD SVG 1.0//EN" "http://www.w3.org/TR/2001/REC-SVG-20010904/DTD/svg10.dtd">
<svg version="1.0" id="Layer_1" xmlns="http://www.w3.org/2000/svg" xmlns:xlink="http://www.w3.org/1999/xlink" x="0px" y="0px"
	 width="50px" height="50.004px" viewBox="0 0 50 50.004" style="enable-background:new 0 0 50 50.004;" xml:space="preserve">
<path d="M42.657,19.907c-0.382-1.325-0.91-2.599-1.575-3.802l4.278-6.098l-5.438-5.436l-6.021,4.328
	c-1.213-0.675-2.497-1.209-3.83-1.593L28.791,0h-7.69l-1.187,7.282c-1.344,0.381-2.629,0.909-3.837,1.576l-6.005-4.29l-5.436,5.434
	l4.223,6.038c-0.68,1.222-1.218,2.516-1.605,3.861L0,21.109v7.686l7.242,1.283c0.385,1.344,0.923,2.638,1.605,3.86l-4.28,5.986
	L10,45.364l6.047-4.235c1.218,0.674,2.506,1.206,3.845,1.588l1.213,7.287h7.685l1.297-7.307c1.338-0.39,2.62-0.927,3.827-1.603
	l6.085,4.27l5.438-5.441l-4.347-6.035c0.666-1.205,1.192-2.48,1.571-3.805L50,28.796l0,0v-7.69L42.657,19.907z M25,32.002
	c-3.86,0-7-3.141-7-7c0-3.86,3.14-7,7-7c3.859,0,7,3.14,7,7C32,28.861,28.859,32.002,25,32.002z"/>
</svg>
