<?xml version="1.0" encoding="utf-8"?>
<!-- Generator: Adobe Illustrator 17.0.2, SVG Export Plug-In . SVG Version: 6.00 Build 0)  -->
<!DOCTYPE svg PUBLIC "-//W3C//DTD SVG 1.0//EN" "http://www.w3.org/TR/2001/REC-SVG-20010904/DTD/svg10.dtd">
<svg version="1.0" id="Layer_1" xmlns="http://www.w3.org/2000/svg" xmlns:xlink="http://www.w3.org/1999/xlink" x="0px" y="0px"
	 width="50px" height="50px" viewBox="0 0 50 50" style="enable-background:new 0 0 50 50;" xml:space="preserve">
<path d="M25,4.07C12.356,4.07,2.07,13.011,2.07,24c0,6.176,3.337,12.045,8.957,15.805c-0.126,1.034-0.646,3.622-2.787,6.66
	l-1.027,1.457l1.84,0.008c5.448-0.001,9.116-3.367,10.285-4.611c1.842,0.405,3.744,0.611,5.662,0.611
	c12.644,0,22.93-8.94,22.93-19.93S37.644,4.07,25,4.07z M25,42.07c-1.96,0-3.902-0.23-5.771-0.686l-0.574-0.14l-0.37,0.461
	c-0.031,0.039-2.86,3.495-7.502,4.229c2.12-3.685,2.143-6.476,2.143-6.608l-0.001-0.511l-0.431-0.273
	C7.131,35.143,3.93,29.706,3.93,24c0-9.964,9.452-18.07,21.07-18.07S46.07,14.036,46.07,24S36.618,42.07,25,42.07z"/>
</svg>
