<svg xmlns="http://www.w3.org/2000/svg" width="50" height="50" viewBox="0 0 50 50">
    <path d="M 6 0 C 2.691 0 0 2.691 0 6 C 0 9.309 2.691 12 6 12 C 7.2964633 12 8.4866987 11.576494 9.46875 10.875 L 17.25 18.6875 C 15.839345 20.41167 15 22.603707 15 25 C 15 26.979232 15.597697 28.820593 16.59375 30.375 L 10.03125 35.5625 C 8.9652507 34.593444 7.5510938 34 6 34 C 2.691 34 0 36.691 0 40 C 0 43.309 2.691 46 6 46 C 9.309 46 12 43.309 12 40 C 12 38.965938 11.743573 38.006346 11.28125 37.15625 L 17.84375 31.9375 C 19.662408 33.812327 22.187931 35 25 35 C 26.318674 35 27.564962 34.747087 28.71875 34.28125 L 31.34375 39.25 C 29.921098 40.348019 29 42.067558 29 44 C 29 47.309 31.691 50 35 50 C 38.309 50 41 47.309 41 44 C 41 40.691 38.309 38 35 38 C 34.345094 38 33.71542 38.117753 33.125 38.3125 L 30.5 33.34375 C 32.388349 32.097005 33.829144 30.22859 34.53125 28.03125 L 38 28.75 C 37.996685 28.831718 38 28.917481 38 29 C 38 32.309 40.691 35 44 35 C 47.309 35 50 32.309 50 29 C 50 25.691 47.309 23 44 23 C 41.459653 23 39.28016 24.578446 38.40625 26.8125 L 34.9375 26.0625 C 34.973859 25.716511 35 25.35546 35 25 C 35 21.051582 32.674538 17.655758 29.34375 16.03125 L 30.875 11.90625 C 31.235638 11.974118 31.619912 12 32 12 C 35.309 12 38 9.309 38 6 C 38 2.691 35.309 0 32 0 C 28.691 0 26 2.691 26 6 C 26 8.2203297 27.234343 10.149933 29.03125 11.1875 L 27.46875 15.3125 C 26.676009 15.109637 25.855079 15 25 15 C 22.603707 15 20.41167 15.839345 18.6875 17.25 L 10.875 9.46875 C 11.576494 8.4866987 12 7.2964633 12 6 C 12 2.691 9.309 0 6 0 z"/>
</svg>
