<svg xmlns="http://www.w3.org/2000/svg" width="50" height="50" viewBox="0 0 50 50">
    <path style="text-indent:0;text-align:start;line-height:normal;text-transform:none;block-progression:tb;-inkscape-font-specification:Bitstream Vera Sans" d="M 6 0 C 2.6981362 0 0 2.6981362 0 6 C 0 9.3018638 2.6981362 12 6 12 C 7.2936674 12 8.4864005 11.577398 9.46875 10.875 L 17.25 18.6875 C 15.839047 20.412069 15 22.606028 15 25 C 15 26.978915 15.597348 28.820577 16.59375 30.375 L 10.03125 35.5625 C 8.9645288 34.592513 7.5477487 34 6 34 C 2.6981362 34 0 36.698136 0 40 C 0 43.301864 2.6981362 46 6 46 C 9.3018638 46 12 43.301864 12 40 C 12 38.953096 11.725729 37.983761 11.25 37.125 L 17.84375 31.9375 C 19.662797 33.812435 22.189427 35 25 35 C 26.328786 35 27.588868 34.754162 28.75 34.28125 L 31.375 39.25 C 29.94046 40.348605 29 42.062779 29 44 C 29 47.301864 31.698136 50 35 50 C 38.301864 50 41 47.301864 41 44 C 41 40.698136 38.301864 38 35 38 C 34.346506 38 33.71496 38.11736 33.125 38.3125 L 30.5 33.34375 C 32.388383 32.096838 33.829005 30.228416 34.53125 28.03125 L 38 28.75 C 37.996677 28.831557 38 28.917659 38 29 C 38 32.301864 40.698136 35 44 35 C 47.301864 35 50 32.301864 50 29 C 50 25.698136 47.301864 23 44 23 C 41.465131 23 39.281818 24.579721 38.40625 26.8125 L 34.9375 26.0625 C 34.973868 25.716567 35 25.355386 35 25 C 35 21.065434 32.692312 17.661946 29.375 16.03125 L 30.90625 11.90625 C 31.256952 11.97061 31.631329 12 32 12 C 35.301864 12 38 9.3018638 38 6 C 38 2.6981362 35.301864 0 32 0 C 28.698136 0 26 2.6981362 26 6 C 26 8.2155413 27.234385 10.148337 29.03125 11.1875 L 27.5 15.34375 C 26.696433 15.134677 25.86797 15 25 15 C 22.604691 15 20.411839 15.838643 18.6875 17.25 L 10.875 9.46875 C 11.577398 8.4864005 12 7.2936674 12 6 C 12 2.6981362 9.3018638 0 6 0 z M 6 2 C 8.2209836 2 10 3.7790164 10 6 C 10 8.2209836 8.2209836 10 6 10 C 3.7790164 10 2 8.2209836 2 6 C 2 3.7790164 3.7790164 2 6 2 z M 32 2 C 34.220984 2 36 3.7790164 36 6 C 36 8.2209836 34.220984 10 32 10 C 29.779016 10 28 8.2209836 28 6 C 28 3.7790164 29.779016 2 32 2 z M 25 17 C 29.432481 17 33 20.572392 33 25 C 33 29.433151 29.433151 33 25 33 C 20.569066 33 17 29.432883 17 25 C 17 22.849526 17.844804 20.904462 19.21875 19.46875 A 1.016466 1.016466 0 0 0 19.4375 19.25 C 20.875806 17.857734 22.832296 17 25 17 z M 44 25 C 46.220984 25 48 26.779016 48 29 C 48 31.220984 46.220984 33 44 33 C 41.779016 33 40 31.220984 40 29 C 40 26.779016 41.779016 25 44 25 z M 6 36 C 8.2209836 36 10 37.779016 10 40 C 10 42.220984 8.2209836 44 6 44 C 3.7790164 44 2 42.220984 2 40 C 2 37.779016 3.7790164 36 6 36 z M 35 40 C 37.220984 40 39 41.779016 39 44 C 39 46.220984 37.220984 48 35 48 C 32.779016 48 31 46.220984 31 44 C 31 42.482799 31.828355 41.178482 33.0625 40.5 A 1.0001 1.0001 0 0 0 33.15625 40.46875 C 33.168656 40.462315 33.175017 40.443808 33.1875 40.4375 A 1.0001 1.0001 0 0 0 33.25 40.40625 C 33.778055 40.150851 34.370485 40 35 40 z"/>
</svg>
