<?xml version="1.0" encoding="utf-8"?>
<!-- Generator: Adobe Illustrator 17.1.0, SVG Export Plug-In . SVG Version: 6.00 Build 0)  -->
<!DOCTYPE svg PUBLIC "-//W3C//DTD SVG 1.0//EN" "http://www.w3.org/TR/2001/REC-SVG-20010904/DTD/svg10.dtd">
<svg version="1.0" id="Layer_1" xmlns="http://www.w3.org/2000/svg" xmlns:xlink="http://www.w3.org/1999/xlink" x="0px" y="0px"
	 viewBox="0 0 50 50" style="enable-background:new 0 0 50 50;" xml:space="preserve">
<path d="M29,16H9v-2h20V16z M29,24H9v2h20V24z M29,34H9v2h20V34z M50,5v40c0,0.553-0.447,1-1,1H1c-0.552,0-1-0.447-1-1V5
	c0-0.552,0.448-1,1-1h48C49.553,4,50,4.448,50,5z M48,6H2v38h46V6z M37.69,27.993c0.176,0.135,0.391,0.207,0.609,0.207
	c0.051,0,0.102-0.004,0.151-0.012c0.271-0.041,0.512-0.191,0.668-0.415l2.8-4c0.316-0.452,0.207-1.076-0.246-1.393
	c-0.453-0.316-1.076-0.208-1.393,0.246l-2.2,3.143l-1.771-1.362c-0.438-0.338-1.064-0.255-1.402,0.183
	c-0.336,0.438-0.255,1.066,0.184,1.403L37.69,27.993z M37.69,17.993c0.176,0.135,0.391,0.208,0.609,0.208
	c0.051,0,0.102-0.004,0.151-0.012c0.271-0.041,0.512-0.191,0.668-0.415l2.8-4c0.316-0.452,0.207-1.076-0.246-1.393
	c-0.453-0.316-1.076-0.208-1.393,0.246l-2.2,3.143l-1.771-1.362c-0.438-0.338-1.064-0.255-1.402,0.183
	c-0.336,0.438-0.255,1.065,0.184,1.402L37.69,17.993z M37.69,37.993c0.176,0.135,0.391,0.207,0.609,0.207
	c0.051,0,0.102-0.004,0.151-0.012c0.271-0.041,0.512-0.191,0.668-0.415l2.8-4c0.316-0.452,0.207-1.076-0.246-1.393
	s-1.076-0.208-1.393,0.246l-2.2,3.143l-1.771-1.362c-0.438-0.337-1.064-0.257-1.402,0.184c-0.336,0.438-0.255,1.065,0.184,1.402
	L37.69,37.993z"/>
</svg>
