<svg xmlns="http://www.w3.org/2000/svg" width="50" height="50" viewBox="0 0 50 50">
    <path d="M 13 0 C 11.346 0 10 1.346 10 3 L 10 24 L 30.53125 24 L 21.34375 14.8125 C 20.95275 14.4215 20.95275 13.79725 21.34375 13.40625 C 21.73475 13.01525 22.359 13.01525 22.75 13.40625 L 34.34375 25 L 22.75 36.59375 C 22.555 36.78875 22.3185 36.90625 22.0625 36.90625 C 21.8065 36.90625 21.53875 36.78875 21.34375 36.59375 C 20.95275 36.20275 20.95275 35.5785 21.34375 35.1875 L 30.53125 26 L 10 26 L 10 47 C 10 48.654 11.346 50 13 50 L 47 50 C 48.654 50 50 48.654 50 47 L 50 3 C 50 1.346 48.654 0 47 0 L 13 0 z M 10 26 L 10 24 L 1 24 C 0.448 24 0 24.448 0 25 C 0 25.552 0.448 26 1 26 L 10 26 z"/>
</svg>
