<svg xmlns="http://www.w3.org/2000/svg" width="50" height="50" viewBox="0 0 50 50">
    <path style="text-indent:0;text-align:start;line-height:normal;text-transform:none;block-progression:tb;-inkscape-font-specification:Bitstream Vera Sans" d="M 13 0 C 11.355541 0 10 1.3544268 10 3 L 10 22 L 12 22 L 12 3 C 12 2.4355732 12.436459 2 13 2 L 47 2 C 47.563541 2 48 2.4355732 48 3 L 48 47 C 48 47.562937 47.562937 48 47 48 L 13 48 C 12.437063 48 12 47.562937 12 47 L 12 28 L 10 28 L 10 47 C 10 48.645063 11.354937 50 13 50 L 47 50 C 48.645063 50 50 48.645063 50 47 L 50 3 C 50 1.3544268 48.644459 0 47 0 L 13 0 z M 21.84375 13.09375 A 1.0001 1.0001 0 0 0 21.34375 14.8125 L 30.53125 24 L 1 24 A 1.0001 1.0001 0 0 0 0.90625 24 A 1.001098 1.001098 0 0 0 1 26 L 30.53125 26 L 21.34375 35.1875 A 1.0001 1.0001 0 1 0 22.75 36.59375 L 33.65625 25.71875 L 34.34375 25 L 33.65625 24.28125 L 22.75 13.40625 A 1.0001 1.0001 0 0 0 21.9375 13.09375 A 1.0001 1.0001 0 0 0 21.84375 13.09375 z" color="#000" overflow="visible" enable-background="accumulate" font-family="Bitstream Vera Sans"/>
</svg>
