<?xml version="1.0" encoding="utf-8"?>
<!-- Generator: Adobe Illustrator 17.0.2, SVG Export Plug-In . SVG Version: 6.00 Build 0)  -->
<!DOCTYPE svg PUBLIC "-//W3C//DTD SVG 1.0//EN" "http://www.w3.org/TR/2001/REC-SVG-20010904/DTD/svg10.dtd">
<svg version="1.0" id="Layer_1" xmlns="http://www.w3.org/2000/svg" xmlns:xlink="http://www.w3.org/1999/xlink" x="0px" y="0px"
	 width="50.357px" height="50px" viewBox="0 0 50.357 50" style="enable-background:new 0 0 50.357 50;" xml:space="preserve">
<path d="M37.346,35.183L46.529,26H17c-0.552,0-1-0.447-1-1c0-0.552,0.448-1,1-1h29.529l-9.183-9.183
	c-0.391-0.391-0.391-1.023,0-1.414s1.023-0.391,1.414,0L50.357,25L38.76,36.597c-0.195,0.195-0.451,0.293-0.707,0.293
	s-0.512-0.098-0.707-0.293C36.955,36.206,36.955,35.573,37.346,35.183z M38,47c0,0.552-0.448,1-1,1H3c-0.551,0-1-0.448-1-1V3
	c0-0.551,0.449-1,1-1h34c0.552,0,1,0.449,1,1v6l2,2V3c0-1.654-1.346-3-3-3H3C1.346,0,0,1.346,0,3v44c0,1.654,1.346,3,3,3h34
	c1.654,0,3-1.346,3-3v-8l-2,2V47z"/>
</svg>
