<?xml version="1.0" encoding="utf-8"?>
<!-- Generator: Adobe Illustrator 17.0.2, SVG Export Plug-In . SVG Version: 6.00 Build 0)  -->
<!DOCTYPE svg PUBLIC "-//W3C//DTD SVG 1.0//EN" "http://www.w3.org/TR/2001/REC-SVG-20010904/DTD/svg10.dtd">
<svg version="1.0" id="Layer_1" xmlns="http://www.w3.org/2000/svg" xmlns:xlink="http://www.w3.org/1999/xlink" x="0px" y="0px"
	 width="50px" height="50px" viewBox="0 0 50 50" style="enable-background:new 0 0 50 50;" xml:space="preserve">
<path d="M13.5,30c-1.93,0-3.5,1.57-3.5,3.5s1.57,3.5,3.5,3.5s3.5-1.57,3.5-3.5S15.43,30,13.5,30z M13.5,35
	c-0.827,0-1.5-0.673-1.5-1.5s0.673-1.5,1.5-1.5s1.5,0.673,1.5,1.5S14.327,35,13.5,35z M49.998,39.259v-9.998H50
	c0-0.006-0.002-0.01-0.002-0.016v-9.244h-2.147L42.71,0.832L32.668,3.525c-0.009,0.003-0.018,0.003-0.028,0.006l0,0.001
	L10.284,9.529l0-0.002c-0.011,0.003-0.021,0.007-0.033,0.01L0.213,12.23l2.345,8.678c0.016,0.088,0.029,0.174,0.054,0.265
	l0.017-0.005l3.373,12.485v5.606H6c0,0.004,0.001,0.008,0.001,0.012v6.727h7.53c0.007,0,0.012,0.002,0.019,0.002v-0.002h28.898V46
	c0.007,0,0.012-0.002,0.019-0.002h7.529v-6.724c0-0.006,0.002-0.01,0.002-0.016H49.998z M48.002,21.999v4.353
	c-0.57-0.315-1.174-0.552-1.688-0.749c-0.513-0.197-1.15-0.442-1.328-0.62c-0.142-0.142-0.354-0.637-0.523-1.035
	c-0.243-0.568-0.552-1.284-1.019-1.949H48.002z M42.426,7.483c-0.632-0.156-1.276-0.229-1.823-0.287
	c-0.546-0.057-1.225-0.128-1.443-0.255c-0.174-0.1-0.507-0.524-0.775-0.864c-0.382-0.486-0.865-1.097-1.489-1.618l4.403-1.181
	L42.426,7.483z M33.158,5.461l0,0.001c1.688-0.451,2.544,0.439,3.654,1.852c0.45,0.573,0.839,1.067,1.347,1.36
	c0.587,0.338,1.351,0.418,2.234,0.512c1.498,0.157,2.574,0.329,2.783,1.108l0.002-0.001l2.604,9.708h-6.179
	c-0.01,0-0.02-0.001-0.03-0.001v0.001h-5.686c0.039-1.085-0.079-2.174-0.367-3.247c-0.686-2.559-2.223-4.731-4.328-6.117
	c-2.141-1.409-4.611-1.84-6.955-1.21c-2.344,0.628-4.267,2.237-5.416,4.529c-0.922,1.839-1.242,3.943-0.96,6.045H6.001v5.995
	l-1.468-5.434c-0.119-0.741,0.697-1.409,1.866-2.259c0.719-0.523,1.34-0.974,1.679-1.562c0.292-0.507,0.381-1.129,0.484-1.849
	c0.255-1.779,0.549-2.98,2.238-3.433l0-0.001L33.158,5.461z M17.878,20.001c-0.296-1.795-0.047-3.595,0.732-5.149
	c0.889-1.774,2.362-3.015,4.146-3.493c1.782-0.479,3.679-0.143,5.338,0.95c1.694,1.116,2.937,2.878,3.495,4.964
	c0.243,0.904,0.337,1.819,0.297,2.729H17.878z M12.556,21.999c-0.467,0.665-0.776,1.38-1.019,1.949
	c-0.17,0.398-0.382,0.894-0.523,1.035c-0.179,0.178-0.816,0.423-1.328,0.62c-0.513,0.197-1.117,0.435-1.687,0.75v-4.353H12.556z
	 M7.062,12.46c-0.279,0.765-0.392,1.536-0.479,2.149c-0.062,0.428-0.138,0.961-0.237,1.133c-0.126,0.219-0.678,0.62-1.122,0.943
	c-0.442,0.321-0.961,0.701-1.427,1.149L2.663,13.64L7.062,12.46z M7.999,41.773C8.267,41.896,8.53,42,8.758,42.087
	c0.283,0.108,0.712,0.273,0.809,0.354c0.072,0.085,0.208,0.4,0.306,0.63c0.114,0.267,0.257,0.594,0.444,0.931H7.999V41.773z
	 M13.551,44.002V44c-0.996,0-1.34-0.55-1.839-1.716c-0.203-0.474-0.395-0.922-0.725-1.251c-0.378-0.378-0.929-0.59-1.512-0.813
	C8.668,39.909,8,39.623,8,39.259H7.999v-5.762l0.027-0.007l-0.027-0.101v-4.127H8c0-0.807,0.996-1.251,2.403-1.792
	c0.829-0.318,1.545-0.594,2.024-1.072c0.415-0.414,0.662-0.992,0.949-1.662C14.083,23.083,14.678,22,16.426,22v-0.001h23.148V22
	c1.748,0,2.343,1.083,3.05,2.735c0.286,0.669,0.534,1.248,0.948,1.662c0.479,0.479,1.195,0.754,2.024,1.072
	C47.004,28.01,48,28.454,48,29.261h0.002v9.998H48c0,0.365-0.668,0.651-1.476,0.961c-0.583,0.224-1.134,0.436-1.514,0.813
	c-0.328,0.33-0.52,0.776-0.723,1.25C43.789,43.45,43.445,44,42.449,44v0.002H13.551z M45.683,44.002
	c0.187-0.338,0.33-0.665,0.444-0.932c0.099-0.23,0.233-0.545,0.292-0.616c0.109-0.094,0.538-0.258,0.822-0.367
	c0.228-0.088,0.491-0.192,0.761-0.314v2.229H45.683z M28,23c-4.962,0-9,4.486-9,10s4.038,10,9,10c4.963,0,9-4.486,9-10
	S32.963,23,28,23z M28,41c-3.86,0-7-3.589-7-8s3.14-8,7-8c3.859,0,7,3.589,7,8S31.859,41,28,41z M46,33.5c0-1.93-1.57-3.5-3.5-3.5
	S39,31.57,39,33.5s1.57,3.5,3.5,3.5S46,35.43,46,33.5z M41,33.5c0-0.827,0.673-1.5,1.5-1.5s1.5,0.673,1.5,1.5S43.327,35,42.5,35
	S41,34.327,41,33.5z M38.963,19.312c1.93,0,3.5-1.57,3.5-3.5s-1.57-3.5-3.5-3.5s-3.5,1.57-3.5,3.5S37.033,19.312,38.963,19.312z
	 M38.963,14.312c0.827,0,1.5,0.673,1.5,1.5s-0.673,1.5-1.5,1.5s-1.5-0.673-1.5-1.5S38.136,14.312,38.963,14.312z"/>
</svg>
