<?xml version="1.0" encoding="utf-8"?>
<!-- Generator: Adobe Illustrator 17.0.2, SVG Export Plug-In . SVG Version: 6.00 Build 0)  -->
<!DOCTYPE svg PUBLIC "-//W3C//DTD SVG 1.0//EN" "http://www.w3.org/TR/2001/REC-SVG-20010904/DTD/svg10.dtd">
<svg version="1.0" id="Layer_1" xmlns="http://www.w3.org/2000/svg" xmlns:xlink="http://www.w3.org/1999/xlink" x="0px" y="0px"
	 width="50px" height="50px" viewBox="0 0 50 50" style="enable-background:new 0 0 50 50;" xml:space="preserve">
<g>
	<path d="M48,4h-7V2c0-1.159-0.841-2-2-2h-2c-1.159,0-2,0.841-2,2v2H15V2c0-1.159-0.841-2-2-2h-2C9.841,0,9,0.841,9,2v2H2
		C0.841,4,0,4.841,0,6v42c0,1.159,0.841,2,2,2h46c1.159,0,2-0.841,2-2V6C50,4.841,49.159,4,48,4z M37,2h2v6h-2l-0.051-5.995
		C36.949,2.005,36.965,2,37,2z M11,2h2v6h-2l-0.051-5.995C10.949,2.005,10.965,2,11,2z M48,48H2V16h46V48z M48,14H2V6h7v2
		c0,1.159,0.841,2,2,2h2c1.159,0,2-0.841,2-2V6h20v2c0,1.159,0.841,2,2,2h2c1.159,0,2-0.841,2-2V6h7V14z"/>
	<path d="M7,44h36c0.553,0,1-0.447,1-1V22c0-0.552-0.447-1-1-1H7c-0.552,0-1,0.448-1,1v21C6,43.553,6.448,44,7,44z M35,23h7v5h-7V23
		z M35,30h7v5h-7V30z M35,37h7v5h-7V37z M26,23h7v5h-7V23z M26,30h7v5h-7V30z M26,37h7v5h-7V37z M17,23h7v5h-7V23z M17,30h7v5h-7V30
		z M17,37h7v5h-7V37z M8,23h7v5H8V23z M8,30h7v5H8V30z M8,37h7v5H8V37z"/>
</g>
</svg>
