<?xml version="1.0" encoding="utf-8"?>
<!-- Generator: Adobe Illustrator 17.0.2, SVG Export Plug-In . SVG Version: 6.00 Build 0)  -->
<!DOCTYPE svg PUBLIC "-//W3C//DTD SVG 1.0//EN" "http://www.w3.org/TR/2001/REC-SVG-20010904/DTD/svg10.dtd">
<svg version="1.0" id="Layer_1" xmlns="http://www.w3.org/2000/svg" xmlns:xlink="http://www.w3.org/1999/xlink" x="0px" y="0px"
	 width="50px" height="50px" viewBox="0 0 50 50" style="enable-background:new 0 0 50 50;" xml:space="preserve">
<path d="M43.734,20H29.128C26.953,17.224,17.012,4.54,16.782,4.256c-0.24-0.303-0.688-0.866-1.75-0.984
	c-0.868-0.096-1.99-0.205-2.352-0.236l-0.182-0.008c-0.715,0-1.08,0.374-1.234,0.596c-0.196,0.284-0.374,0.773-0.103,1.493
	C11.405,5.766,15.681,16.17,17.255,20H6.641l-2.598-4.993C3.539,14.039,2.439,14.011,2,14H1.297c-0.401,0-0.725,0.131-0.962,0.391
	c-0.169,0.186-0.362,0.518-0.314,1.042c0.042,0.464,1.35,6.688,1.958,9.57c-0.278,1.356-1.854,9.03-1.94,9.445
	c-0.086,0.406-0.001,0.793,0.238,1.089C0.515,35.831,0.887,36,1.297,36h0.712c1.037-0.01,1.573-0.107,2.035-1.009L6.641,30h10.614
	c-1.575,3.83-5.85,14.234-6.093,14.883c-0.271,0.721-0.094,1.21,0.103,1.494c0.154,0.223,0.519,0.596,1.232,0.596l0.185-0.009
	c0.362-0.031,1.483-0.14,2.351-0.235c1.062-0.118,1.509-0.682,1.791-1.036C17.014,45.457,27.191,32.473,29.129,30h14.606
	c4.4,0,6.264-3.577,6.264-5C49.999,23.577,48.136,20,43.734,20z M12.501,45.973l-0.005-0.994v-0.006c0.002,0,0.006,0,0.009,0
	L12.501,45.973z M43.735,28H28.156l-0.301,0.383c-4.263,5.439-12.38,15.794-12.641,16.118c-0.144,0.181-0.169,0.214-0.403,0.239
	c-0.48,0.053-1.041,0.11-1.501,0.155c1.009-2.49,4.45-10.866,6.362-15.515L20.241,28H5.427l-3.118,5.993
	c-0.039,0.001-0.083,0.003-0.136,0.004c0.491-2.386,1.807-8.796,1.807-8.796l0.042-0.204l-0.043-0.204
	c-0.592-2.799-1.48-7.046-1.825-8.785c0.078,0.006,0.131,0.014,0.167,0.021L5.427,22h14.813l-0.568-1.38
	c-1.905-4.632-5.327-12.961-6.36-15.515c0.46,0.045,1.02,0.103,1.5,0.156c0.234,0.025,0.256,0.054,0.458,0.307
	c0.206,0.256,8.322,10.61,12.584,16.049L28.155,22h15.579c3.113,0,4.255,2.471,4.265,3C47.991,25.529,46.854,28,43.735,28z"/>
</svg>
