<?xml version="1.0" encoding="utf-8"?>
<!-- Generator: Adobe Illustrator 17.0.2, SVG Export Plug-In . SVG Version: 6.00 Build 0)  -->
<!DOCTYPE svg PUBLIC "-//W3C//DTD SVG 1.0//EN" "http://www.w3.org/TR/2001/REC-SVG-20010904/DTD/svg10.dtd">
<svg version="1.0" id="Layer_1" xmlns="http://www.w3.org/2000/svg" xmlns:xlink="http://www.w3.org/1999/xlink" x="0px" y="0px"
	 width="50px" height="50px" viewBox="0 0 50 50" style="enable-background:new 0 0 50 50;" xml:space="preserve">
<g>
	<path d="M27.713,23.811C26.93,23.302,26.001,23,25,23c-2.757,0-5,2.243-5,5s2.243,5,5,5s5-2.243,5-5c0-0.01-0.003-0.02-0.003-0.03
		l10.953-8.921l-0.225-0.358L27.713,23.811z M25,31c-1.654,0-3-1.346-3-3s1.346-3,3-3s3,1.346,3,3S26.654,31,25,31z"/>
	<path d="M35.001,40H14.999c-0.552,0-1,0.447-1,1v3.998c0,0.553,0.448,1,1,1h20.002c0.553,0,1-0.447,1-1V41
		C36.001,40.447,35.554,40,35.001,40z M34.001,43.998H15.999V42h18.002V43.998z"/>
	<path d="M46.699,15.594c-0.015-0.032-0.03-0.063-0.048-0.094c-0.019-0.032-0.038-0.062-0.06-0.091
		c-2.175-3.715-5.28-6.821-8.994-8.997c-0.031-0.023-0.063-0.044-0.098-0.064c-0.033-0.019-0.067-0.036-0.102-0.051
		C33.742,4.2,29.509,3,25,3c-4.511,0-8.749,1.202-12.406,3.301c-0.032,0.014-0.063,0.03-0.094,0.048
		c-0.032,0.019-0.062,0.039-0.091,0.06c-3.717,2.176-6.825,5.284-9,9c-0.021,0.029-0.041,0.06-0.06,0.091
		c-0.018,0.031-0.034,0.062-0.048,0.094C1.202,19.251,0,23.489,0,28c0,4.973,1.455,9.775,4.206,13.888
		c0.306,0.46,0.927,0.582,1.387,0.275c0.459-0.307,0.582-0.928,0.275-1.387c-0.092-0.139-0.184-0.278-0.273-0.418l1.719-0.992
		C7.793,39.09,7.956,38.479,7.68,38c-0.277-0.479-0.887-0.644-1.366-0.366l-1.72,0.993C3.043,35.655,2.166,32.381,2.022,29H4
		c0.552,0,1-0.447,1-1s-0.448-1-1-1H2.022c0.149-3.458,1.064-6.721,2.581-9.622l1.71,0.988C6.792,18.641,7.402,18.478,7.679,18
		c0.276-0.479,0.112-1.09-0.366-1.366l-1.708-0.986c1.807-2.828,4.215-5.235,7.042-7.042l0.986,1.708
		c0.276,0.478,0.886,0.641,1.366,0.366c0.479-0.276,0.642-0.888,0.366-1.366l-0.988-1.71C17.279,6.086,20.542,5.17,24,5.021V7
		c0,0.552,0.448,1,1,1c0.553,0,1-0.448,1-1V5.021c3.457,0.148,6.721,1.065,9.621,2.581l-0.987,1.71
		c-0.276,0.479-0.112,1.09,0.366,1.366c0.477,0.275,1.09,0.112,1.366-0.366l0.985-1.708c2.828,1.807,5.236,4.215,7.043,7.043
		l-1.706,0.986C42.21,16.91,42.046,17.522,42.322,18s0.889,0.642,1.366,0.366l1.709-0.987c1.517,2.9,2.433,6.164,2.581,9.621H46
		c-0.553,0-1,0.447-1,1s0.447,1,1,1h1.979c-0.145,3.379-1.021,6.653-2.572,9.626l-1.719-0.992c-0.479-0.275-1.09-0.114-1.366,0.366
		c-0.276,0.479-0.112,1.09,0.366,1.366l1.718,0.991c-0.091,0.143-0.184,0.284-0.277,0.425c-0.308,0.459-0.184,1.08,0.275,1.387
		c0.171,0.114,0.363,0.169,0.555,0.169c0.322,0,0.64-0.155,0.832-0.444C48.544,37.777,50,32.973,50,28
		C50,23.489,48.799,19.251,46.699,15.594z"/>
</g>
</svg>
