<?xml version="1.0" encoding="utf-8"?>
<!-- Generator: Adobe Illustrator 17.0.2, SVG Export Plug-In . SVG Version: 6.00 Build 0)  -->
<!DOCTYPE svg PUBLIC "-//W3C//DTD SVG 1.0//EN" "http://www.w3.org/TR/2001/REC-SVG-20010904/DTD/svg10.dtd">
<svg version="1.0" id="Layer_1" xmlns="http://www.w3.org/2000/svg" xmlns:xlink="http://www.w3.org/1999/xlink" x="0px" y="0px"
	 width="50px" height="50px" viewBox="0 0 50 50" style="enable-background:new 0 0 50 50;" xml:space="preserve">
<path d="M48.386,28.057l-4.155-5.542C43.278,21.368,41.771,20,40,20h-8c-0.347,0-0.683,0.08-1.002,0.205v-4.299
	c0-1.602-1.261-2.905-2.811-2.905H2.846c-1.568,0-2.845,1.274-2.845,2.839v26.164c0,1.566,1.429,2.993,2.999,2.993h4.09
	C7.568,47.832,10.032,50,13,50s5.432-2.168,5.91-5.002h9.244c0.748,0,1.425-0.296,1.933-0.769C30.62,44.692,31.291,44.995,32,45
	h1.083c0.478,2.834,2.949,5,5.917,5c3.309,0,6-2.691,6-6s-2.691-6-6-6c-2.968,0-5.439,2.166-5.917,5h-1.075
	C31.537,42.996,31,42.464,31,42V23c0-0.467,0.532-1,1-1h8c0.765,0,1.746,0.653,2.661,1.753L42.846,24H38c-1.598,0-3,1.402-3,3v4
	c0,1.542,1.458,3,3,3h10v8c0,0.468-0.532,1-1,1h-2v1v1h2c1.57,0,3-1.43,3-3v-9.615C50,30.373,48.563,28.305,48.386,28.057z M39,40
	c2.206,0,4,1.794,4,4s-1.794,4-4,4s-4-1.794-4-4S36.794,40,39,40z M13,48c-2.206,0-4-1.794-4-4s1.794-4,4-4s4,1.794,4,4
	S15.206,48,13,48z M28.154,43.002H18.91C18.432,40.168,15.968,38,13,38s-5.432,2.168-5.91,5.002H3c-0.468,0-1.001-0.531-1.001-0.997
	V15.841c0-0.464,0.38-0.842,0.848-0.842h25.341c0.441,0,0.814,0.416,0.814,0.908v7.076C29.002,22.988,29,22.994,29,23v19
	c0,0.006,0.002,0.012,0.002,0.017v0.141C29.002,42.623,28.621,43.002,28.154,43.002z M38,32c-0.448,0-1-0.552-1-1v-4
	c0-0.554,0.547-1,1-1h6.345l2.428,3.237c0.305,0.427,1.045,1.668,1.199,2.763H38z"/>
</svg>
